<?xml version="1.0" encoding="UTF-8"?>
<svg width="24px" height="24px" viewBox="0 0 24 24" version="1.1" xmlns="http://www.w3.org/2000/svg" xmlns:xlink="http://www.w3.org/1999/xlink">
    <title>Icon/24/Calendar</title>
    <g id="Icon/24/Calendar" stroke="none" stroke-width="1" fill="none" fill-rule="evenodd">
        <path d="M15,3 C15.5522847,3 16,3.44771525 16,4 L16,4 L16,5 L18,5 C19.0543618,5 19.9181651,5.81587779 19.9945143,6.85073766 L20,7 L20,18 C20,19.1045695 19.1045695,20 18,20 L18,20 L6,20 C4.8954305,20 4,19.1045695 4,18 L4,18 L4,7 C4,5.8954305 4.8954305,5 6,5 L6,5 L8,5 L8,4 L8.00672773,3.88337887 C8.06449284,3.38604019 8.48716416,3 9,3 C9.55228475,3 10,3.44771525 10,4 L10,4 L10,5 L14,5 L14,4 L14.0067277,3.88337887 C14.0644928,3.38604019 14.4871642,3 15,3 Z M18,12.008 L6,12.008 L6,18 L18,18 L18,12.008 Z M8,7 L6,7 L6,10.008 L18,10.008 L18,7 L16,7 L16,8 L15.9932723,8.11662113 C15.9355072,8.61395981 15.5128358,9 15,9 C14.4477153,9 14,8.55228475 14,8 L14,8 L14,7 L10,7 L10,8 L9.99327227,8.11662113 C9.93550716,8.61395981 9.51283584,9 9,9 C8.44771525,9 8,8.55228475 8,8 L8,8 L8,7 Z" id="Combined-Shape" fill="#000000"></path>
    </g>
</svg>