<?xml version="1.0" encoding="UTF-8"?>
<svg width="24px" height="24px" viewBox="0 0 24 24" version="1.1" xmlns="http://www.w3.org/2000/svg" xmlns:xlink="http://www.w3.org/1999/xlink">
    <title>Icon/24/Edit</title>
    <g id="Icon/24/Edit" stroke="none" stroke-width="1" fill="none" fill-rule="evenodd">
        <path d="M10.3011111,5 C10.8533959,5 11.3011111,5.44771525 11.3011111,6 C11.3011111,6.51283584 10.9150709,6.93550716 10.4177322,6.99327227 L10.3011111,7 L6.44444444,7 C6.22625788,7 6.04479256,7.15722236 6.0071606,7.36455499 L6,7.44444444 L6,17.5555556 C6,17.7737421 6.15722236,17.9552074 6.36455499,17.9928394 L6.44444444,18 L16.5555556,18 C16.7737421,18 16.9552074,17.8427776 16.9928394,17.635445 L17,17.5555556 L17,13.6988889 C17,13.1466041 17.4477153,12.6988889 18,12.6988889 C18.5128358,12.6988889 18.9355072,13.0849291 18.9932723,13.5822678 L19,13.6988889 L19,17.5555556 C19,18.8515838 17.9913871,19.9120378 16.7162785,19.9948005 L16.5555556,20 L6.44444444,20 C5.14841623,20 4.08796219,18.9913871 4.00519951,17.7162785 L4,17.5555556 L4,7.44444444 C4,6.14841623 5.00861292,5.08796219 6.28372155,5.00519951 L6.44444444,5 L10.3011111,5 Z M15.7214646,4.29289322 C16.1119889,3.90236893 16.7451539,3.90236893 17.1356782,4.29289322 L17.1356782,4.29289322 L19.7071068,6.86432179 C20.0976311,7.25484608 20.0976311,7.88801106 19.7071068,8.27853535 L19.7071068,8.27853535 L13.2785354,14.7071068 C13.090999,14.8946432 12.8366451,15 12.5714286,15 L12.5714286,15 L10,15 C9.44771525,15 9,14.5522847 9,14 L9,14 L9,11.4285714 C9,11.1633549 9.10535684,10.909001 9.29289322,10.7214646 L9.29289322,10.7214646 Z M16.428,6.414 L11,11.842 L11,13 L12.156,13 L17.585,7.571 L16.428,6.414 Z" id="Combined-Shape" fill="#000000"></path>
    </g>
</svg>