<?xml version="1.0" encoding="UTF-8"?>
<svg width="64px" height="64px" viewBox="0 0 64 64" version="1.1" xmlns="http://www.w3.org/2000/svg" xmlns:xlink="http://www.w3.org/1999/xlink">
    <!-- Generator: Sketch 64 (93537) - https://sketch.com -->
    <title>Icon/Account-Filled-64px</title>
    <desc>Created with Sketch.</desc>
    <g id="Icon/Account-Filled-64px" stroke="none" stroke-width="1" fill="none" fill-rule="evenodd">
        <path d="M32,8 C45.2378947,8 56,18.7621053 56,32 C56,45.2378947 45.2378947,56 32,56 C18.7621053,56 8,45.2378947 8,32 C8,18.7621053 18.7621053,8 32,8 Z M32,38.0009621 C28.6090647,37.9741506 25.1397063,38.5120549 23.0931174,39.0743301 C20.3325297,39.8327677 18.4310234,41.5905639 17.5525873,44.3297047 C21.0396293,48.4100878 26.221914,51 32,51 C37.7189247,51 42.8541863,48.4628521 46.3394702,44.4540739 C45.2432748,41.6175346 42.8810213,39.8474292 40,39.0743301 C38.0953677,38.5632372 35.0822681,38.0253329 32,38.0009621 Z M32,18 C27.5973154,18 24,21.5973154 24,26 C24,30.4026846 27.5973154,34 32,34 C36.4026846,34 40,30.4026846 40,26 C40,21.5973154 36.4026846,18 32,18 Z" id="Combined-Shape" fill="#000000"></path>
    </g>
</svg>