<?xml version="1.0" encoding="UTF-8"?>
<svg width="32px" height="32px" viewBox="0 0 32 32" version="1.1" xmlns="http://www.w3.org/2000/svg" xmlns:xlink="http://www.w3.org/1999/xlink">
    <title>Icon/32/Dots-Drag</title>
    <g id="Icon/32/Dots-Drag" stroke="none" stroke-width="1" fill="none" fill-rule="evenodd">
        <path d="M12,21 C13.1045695,21 14,21.8954305 14,23 C14,24.1045695 13.1045695,25 12,25 C10.8954305,25 10,24.1045695 10,23 C10,21.8954305 10.8954305,21 12,21 Z M20,21 C21.1045695,21 22,21.8954305 22,23 C22,24.1045695 21.1045695,25 20,25 C18.8954305,25 18,24.1045695 18,23 C18,21.8954305 18.8954305,21 20,21 Z M12,14 C13.1045695,14 14,14.8954305 14,16 C14,17.1045695 13.1045695,18 12,18 C10.8954305,18 10,17.1045695 10,16 C10,14.8954305 10.8954305,14 12,14 Z M20,14 C21.1045695,14 22,14.8954305 22,16 C22,17.1045695 21.1045695,18 20,18 C18.8954305,18 18,17.1045695 18,16 C18,14.8954305 18.8954305,14 20,14 Z M12,7 C13.1045695,7 14,7.8954305 14,9 C14,10.1045695 13.1045695,11 12,11 C10.8954305,11 10,10.1045695 10,9 C10,7.8954305 10.8954305,7 12,7 Z M20,7 C21.1045695,7 22,7.8954305 22,9 C22,10.1045695 21.1045695,11 20,11 C18.8954305,11 18,10.1045695 18,9 C18,7.8954305 18.8954305,7 20,7 Z" id="Combined-Shape" fill="#000000"></path>
    </g>
</svg>