<?xml version="1.0" encoding="UTF-8"?>
<svg width="24px" height="24px" viewBox="0 0 24 24" version="1.1" xmlns="http://www.w3.org/2000/svg" xmlns:xlink="http://www.w3.org/1999/xlink">
    <!-- Generator: Sketch 64 (93537) - https://sketch.com -->
    <title>Icon/Search-24px</title>
    <desc>Created with Sketch.</desc>
    <g id="Icon/Search-24px" stroke="none" stroke-width="1" fill="none" fill-rule="evenodd">
        <path d="M16.2852598,14.8345705 L20.7136797,19.2629905 C21.0954401,19.6447508 21.0954401,20.3319194 20.7136797,20.7136797 C20.3319194,21.0954401 19.6447508,21.0954401 19.2629905,20.7136797 L14.8345705,16.2852598 C13.5365854,17.2778367 11.9331919,17.8123012 10.4061506,17.8123012 L10.4061506,17.8123012 L10.4061506,17.8123012 L10.4061506,17.8123012 C8.49734889,17.8123012 6.58854719,17.0487805 5.1378579,15.5980912 C3.68716861,14.223754 3,12.3149523 3,10.4061506 L3,10.4061506 L3,10.4061506 L3,10.4061506 C3,8.49734889 3.68716861,6.58854719 5.1378579,5.1378579 C6.58854719,3.68716861 8.49734889,3 10.4061506,3 L10.4061506,3 L10.4061506,3 L10.4061506,3 C12.3149523,3 14.223754,3.68716861 15.5980912,5.1378579 C17.0487805,6.58854719 17.8123012,8.49734889 17.8123012,10.4061506 L17.8123012,10.4061506 L17.8123012,10.4061506 L17.8123012,10.4061506 C17.8123012,12.009544 17.2778367,13.5365854 16.2852598,14.8345705 Z M10.4061506,4.98515376 C9.03181336,4.98515376 7.65747614,5.51961824 6.58854719,6.58854719 C5.51961824,7.65747614 4.98515376,9.03181336 4.98515376,10.4061506 L4.98515376,10.4061506 C4.98515376,11.7804878 5.51961824,13.154825 6.58854719,14.223754 C7.65747614,15.2163309 9.03181336,15.7507953 10.4061506,15.7507953 L10.4061506,15.7507953 C11.7804878,15.7507953 13.154825,15.2163309 14.223754,14.223754 C15.2163309,13.154825 15.7507953,11.7804878 15.7507953,10.4061506 L15.7507953,10.4061506 C15.7507953,9.03181336 15.2163309,7.65747614 14.223754,6.58854719 C13.154825,5.51961824 11.7804878,4.98515376 10.4061506,4.98515376 L10.4061506,4.98515376 Z" id="Shape" fill="#000000" fill-rule="nonzero"></path>
    </g>
</svg>