<?xml version="1.0" encoding="UTF-8"?>
<svg width="144px" height="48px" viewBox="0 0 144 48" version="1.1" xmlns="http://www.w3.org/2000/svg" xmlns:xlink="http://www.w3.org/1999/xlink">
    <!-- Generator: Sketch 64 (93537) - https://sketch.com -->
    <title>Logo</title>
    <desc>Created with Sketch.</desc>
    <g id="Logo" stroke="none" stroke-width="1" fill="none" fill-rule="evenodd">
        <path d="M17.54,37.54 C18.788,37.54 20,37.372 21.176,37.036 C22.352,36.7 23.396,36.184 24.308,35.488 C25.22,34.792 25.946,33.91 26.486,32.842 C27.026,31.774 27.296,30.508 27.296,29.044 C27.296,27.772 27.044,26.71 26.54,25.858 C26.036,25.006 25.4,24.292 24.632,23.716 C23.864,23.14 23.012,22.678 22.076,22.33 C21.14,21.982 20.24,21.664 19.376,21.376 C18.776,21.184 18.236,20.998 17.756,20.818 C17.276,20.638 16.862,20.44 16.514,20.224 C16.166,20.008 15.902,19.756 15.722,19.468 C15.542,19.18 15.452,18.82 15.452,18.388 C15.452,17.884 15.566,17.47 15.794,17.146 C16.022,16.822 16.304,16.558 16.64,16.354 C16.976,16.15 17.354,16.012 17.774,15.94 C18.194,15.868 18.608,15.832 19.016,15.832 C19.808,15.832 20.63,16.03 21.482,16.426 C22.334,16.822 23.024,17.356 23.552,18.028 L23.552,18.028 L27.476,13.888 C26.348,12.856 25.034,12.076 23.534,11.548 C22.034,11.02 20.564,10.756 19.124,10.756 C17.924,10.756 16.736,10.906 15.56,11.206 C14.384,11.506 13.328,11.98 12.392,12.628 C11.456,13.276 10.7,14.104 10.124,15.112 C9.548,16.12 9.26,17.332 9.26,18.748 C9.26,19.9 9.446,20.878 9.818,21.682 C10.19,22.486 10.682,23.17 11.294,23.734 C11.906,24.298 12.602,24.76 13.382,25.12 C14.162,25.48 14.96,25.792 15.776,26.056 C16.616,26.32 17.366,26.566 18.026,26.794 C18.686,27.022 19.238,27.274 19.682,27.55 C20.126,27.826 20.468,28.132 20.708,28.468 C20.948,28.804 21.068,29.212 21.068,29.692 C21.068,30.196 20.972,30.628 20.78,30.988 C20.588,31.348 20.33,31.636 20.006,31.852 C19.682,32.068 19.304,32.224 18.872,32.32 C18.44,32.416 17.996,32.464 17.54,32.464 C16.532,32.464 15.518,32.206 14.498,31.69 C13.478,31.174 12.656,30.532 12.032,29.764 L12.032,29.764 L8,33.868 C9.128,35.044 10.544,35.95 12.248,36.586 C13.952,37.222 15.716,37.54 17.54,37.54 Z M37.376,37.396 C38,37.396 38.594,37.312 39.158,37.144 C39.722,36.976 40.238,36.76 40.706,36.496 C41.174,36.232 41.582,35.92 41.93,35.56 C42.278,35.2 42.56,34.816 42.776,34.408 L42.776,34.408 L42.848,34.408 L42.848,36.892 L48.536,36.892 L48.536,18.964 L42.632,18.964 L42.632,28.648 C42.632,29.68 42.362,30.58 41.822,31.348 C41.282,32.116 40.496,32.5 39.464,32.5 C38.912,32.5 38.468,32.398 38.132,32.194 C37.796,31.99 37.526,31.708 37.322,31.348 C37.118,30.988 36.98,30.58 36.908,30.124 C36.836,29.668 36.8,29.188 36.8,28.684 L36.8,28.684 L36.8,18.964 L30.86,18.964 L30.86,30.052 C30.86,30.964 30.974,31.858 31.202,32.734 C31.43,33.61 31.802,34.39 32.318,35.074 C32.834,35.758 33.506,36.316 34.334,36.748 C35.162,37.18 36.176,37.396 37.376,37.396 Z M59.084,36.892 L59.084,27.172 C59.084,26.668 59.15,26.182 59.282,25.714 C59.414,25.246 59.612,24.832 59.876,24.472 C60.14,24.112 60.47,23.83 60.866,23.626 C61.262,23.422 61.724,23.32 62.252,23.32 C62.78,23.32 63.218,23.422 63.566,23.626 C63.914,23.83 64.184,24.106 64.376,24.454 C64.568,24.802 64.706,25.204 64.79,25.66 C64.874,26.116 64.916,26.596 64.916,27.1 L64.916,27.1 L64.916,36.892 L70.856,36.892 L70.856,25.804 C70.856,24.916 70.742,24.028 70.514,23.14 C70.286,22.252 69.914,21.466 69.398,20.782 C68.882,20.098 68.204,19.54 67.364,19.108 C66.524,18.676 65.504,18.46 64.304,18.46 C63.68,18.46 63.092,18.544 62.54,18.712 C61.988,18.88 61.478,19.096 61.01,19.36 C60.542,19.624 60.134,19.942 59.786,20.314 C59.438,20.686 59.156,21.064 58.94,21.448 L58.94,21.448 L58.868,21.448 L58.868,18.964 L53.144,18.964 L53.144,36.892 L59.084,36.892 Z M81.224,36.892 L81.224,27.676 C81.224,27.316 81.296,26.896 81.44,26.416 C81.584,25.936 81.818,25.492 82.142,25.084 C82.466,24.676 82.898,24.328 83.438,24.04 C83.978,23.752 84.644,23.608 85.436,23.608 C85.676,23.608 85.922,23.62 86.174,23.644 C86.426,23.668 86.684,23.716 86.948,23.788 L86.948,23.788 L87.2,18.604 C87.056,18.556 86.87,18.52 86.642,18.496 C86.414,18.472 86.18,18.46 85.94,18.46 C84.836,18.46 83.864,18.748 83.024,19.324 C82.184,19.9 81.536,20.644 81.08,21.556 L81.08,21.556 L81.008,21.556 L81.008,18.964 L75.32,18.964 L75.32,36.892 L81.224,36.892 Z M92.6,16.48 C93.056,16.48 93.494,16.396 93.914,16.228 C94.334,16.06 94.694,15.832 94.994,15.544 C95.294,15.256 95.534,14.914 95.714,14.518 C95.894,14.122 95.984,13.696 95.984,13.24 C95.984,12.784 95.894,12.358 95.714,11.962 C95.534,11.566 95.294,11.224 94.994,10.936 C94.694,10.648 94.334,10.42 93.914,10.252 C93.494,10.084 93.056,10 92.6,10 C92.12,10 91.676,10.09 91.268,10.27 C90.86,10.45 90.5,10.684 90.188,10.972 C89.876,11.26 89.636,11.602 89.468,11.998 C89.3,12.394 89.216,12.808 89.216,13.24 C89.216,14.128 89.54,14.89 90.188,15.526 C90.836,16.162 91.64,16.48 92.6,16.48 Z M95.552,36.892 L95.552,18.964 L89.648,18.964 L89.648,36.892 L95.552,36.892 Z M106.136,37.468 C107.048,37.468 107.96,37.36 108.872,37.144 C109.784,36.928 110.606,36.58 111.338,36.1 C112.07,35.62 112.664,34.99 113.12,34.21 C113.576,33.43 113.804,32.476 113.804,31.348 C113.804,30.484 113.636,29.74 113.3,29.116 C112.964,28.492 112.52,27.964 111.968,27.532 C111.416,27.1 110.798,26.752 110.114,26.488 C109.43,26.224 108.752,26.02 108.08,25.876 C106.928,25.612 106.094,25.372 105.578,25.156 C105.062,24.94 104.804,24.58 104.804,24.076 C104.804,23.548 105.038,23.176 105.506,22.96 C105.974,22.744 106.484,22.636 107.036,22.636 C107.756,22.636 108.44,22.792 109.088,23.104 C109.736,23.416 110.3,23.8 110.78,24.256 L110.78,24.256 L114.02,20.908 C113.132,20.068 112.046,19.438 110.762,19.018 C109.478,18.598 108.164,18.388 106.82,18.388 C105.956,18.388 105.086,18.502 104.21,18.73 C103.334,18.958 102.536,19.312 101.816,19.792 C101.096,20.272 100.508,20.89 100.052,21.646 C99.596,22.402 99.368,23.32 99.368,24.4 C99.368,25.24 99.524,25.96 99.836,26.56 C100.148,27.16 100.55,27.664 101.042,28.072 C101.534,28.48 102.092,28.804 102.716,29.044 C103.34,29.284 103.964,29.476 104.588,29.62 C105.812,29.908 106.712,30.184 107.288,30.448 C107.864,30.712 108.152,31.12 108.152,31.672 C108.152,32.248 107.918,32.65 107.45,32.878 C106.982,33.106 106.508,33.22 106.028,33.22 C105.164,33.22 104.348,33.028 103.58,32.644 C102.812,32.26 102.164,31.78 101.636,31.204 L101.636,31.204 L98.324,34.696 C99.26,35.608 100.43,36.298 101.834,36.766 C103.238,37.234 104.672,37.468 106.136,37.468 Z M126.188,37.468 C128.012,37.468 129.614,37.138 130.994,36.478 C132.374,35.818 133.484,34.876 134.324,33.652 L134.324,33.652 L130.22,31.06 C129.812,31.612 129.284,32.062 128.636,32.41 C127.988,32.758 127.196,32.932 126.26,32.932 C125.732,32.932 125.222,32.848 124.73,32.68 C124.238,32.512 123.794,32.278 123.398,31.978 C123.002,31.678 122.678,31.324 122.426,30.916 C122.174,30.508 122.024,30.052 121.976,29.548 L121.976,29.548 L134.972,29.548 C134.996,29.332 135.008,29.104 135.008,28.864 L135.008,28.864 L135.008,28.144 C135.008,26.608 134.786,25.24 134.342,24.04 C133.898,22.84 133.28,21.82 132.488,20.98 C131.696,20.14 130.748,19.498 129.644,19.054 C128.54,18.61 127.328,18.388 126.008,18.388 C124.64,18.388 123.368,18.616 122.192,19.072 C121.016,19.528 119.996,20.17 119.132,20.998 C118.268,21.826 117.584,22.834 117.08,24.022 C116.576,25.21 116.324,26.536 116.324,28 C116.324,29.512 116.582,30.856 117.098,32.032 C117.614,33.208 118.322,34.198 119.222,35.002 C120.122,35.806 121.172,36.418 122.372,36.838 C123.572,37.258 124.844,37.468 126.188,37.468 Z M129.572,25.876 L121.976,25.876 C122,25.42 122.12,24.982 122.336,24.562 C122.552,24.142 122.84,23.776 123.2,23.464 C123.56,23.152 123.98,22.906 124.46,22.726 C124.94,22.546 125.468,22.456 126.044,22.456 C127.22,22.456 128.102,22.792 128.69,23.464 C129.278,24.136 129.572,24.94 129.572,25.876 L129.572,25.876 Z" id="Sunrise" fill="#E6003C"></path>
    </g>
</svg>