<?xml version="1.0" encoding="UTF-8"?>
<svg width="32px" height="32px" viewBox="0 0 32 32" version="1.1" xmlns="http://www.w3.org/2000/svg" xmlns:xlink="http://www.w3.org/1999/xlink">
    <!-- Generator: Sketch 64 (93537) - https://sketch.com -->
    <title>Icon/Account-Filled-32px</title>
    <desc>Created with Sketch.</desc>
    <g id="Icon/Account-Filled-32px" stroke="none" stroke-width="1" fill="none" fill-rule="evenodd">
        <path d="M16,5 C22.0673684,5 27,9.93263158 27,16 C27,22.0673684 22.0673684,27 16,27 C9.93263158,27 5,22.0673684 5,16 C5,9.93263158 9.93263158,5 16,5 Z M19.3578947,18.5801754 L12.6421053,18.5801754 C11.16,18.5801754 10.0416667,19.5315789 10.0416667,20.9905263 L10.0416667,20.9905263 L10.0416667,21.5 C11.6395614,22.9357895 13.0208333,24.25 16,24.25 C18.9791667,24.25 20.3604386,22.9357895 21.9583333,21.5 L21.9583333,21.5 L21.9583333,20.9905263 C21.9583333,19.5084211 20.8168421,18.5801754 19.3578947,18.5801754 L19.3578947,18.5801754 Z M16,10.3822807 C14.1010526,10.3822807 12.5494737,11.9338596 12.5494737,13.832807 C12.5494737,15.7317544 14.1010526,17.2833333 16,17.2833333 C17.8989474,17.2833333 19.4505263,15.7317544 19.4505263,13.832807 C19.4505263,11.9338596 17.8989474,10.3822807 16,10.3822807 Z" id="Combined-Shape" fill="#ffffff"></path>
    </g>
</svg>