<?xml version="1.0" encoding="UTF-8"?>
<svg width="32px" height="32px" viewBox="0 0 32 32" version="1.1" xmlns="http://www.w3.org/2000/svg" xmlns:xlink="http://www.w3.org/1999/xlink">
    <!-- Generator: Sketch 64 (93537) - https://sketch.com -->
    <title>Icon/Account-32</title>
    <desc>Created with Sketch.</desc>
    <g id="Icon/Account-32" stroke="none" stroke-width="1" fill="none" fill-rule="evenodd">
        <g id="Group" transform="translate(4.000000, 4.000000)" fill="#000000">
            <path d="M12,0 C18.6189474,0 24,5.38105263 24,12 C24,18.6189474 18.6189474,24 12,24 C5.38105263,24 0,18.6189474 0,12 C0,5.38105263 5.38105263,0 12,0 Z M12,2 C6.48562213,2 2,6.48562213 2,12 C2,17.5143779 6.48562213,22 12,22 C17.5143779,22 22,17.5143779 22,12 C22,6.48562213 17.5143779,2 12,2 Z M15.6631579,13.8147368 C17.2547368,13.8147368 18.5,14.8273684 18.5,16.4442105 C17.1666667,18.8147368 15,20 12,20 C9,20 6.83333333,18.8147368 5.5,16.4442105 C5.5,14.8526316 6.72,13.8147368 8.33684211,13.8147368 L15.6631579,13.8147368 Z M12,4.87157895 C14.0715789,4.87157895 15.7642105,6.56421053 15.7642105,8.63578947 C15.7642105,10.7073684 14.0715789,12.4 12,12.4 C9.92842105,12.4 8.23578947,10.7073684 8.23578947,8.63578947 C8.23578947,6.56421053 9.92842105,4.87157895 12,4.87157895 Z" id="Combined-Shape"></path>
        </g>
    </g>
</svg>