<?xml version="1.0" encoding="UTF-8"?>
<svg width="32px" height="32px" viewBox="0 0 32 32" version="1.1" xmlns="http://www.w3.org/2000/svg" xmlns:xlink="http://www.w3.org/1999/xlink">
    <title>Icon/32/Company</title>
    <g id="Icon/32/Company" stroke="none" stroke-width="1" fill="none" fill-rule="evenodd">
        <path d="M4,28 L28,28 L28,26.5193133 L26.4842105,26.5193133 L26.4842105,14.0075107 L18.0968421,11.7618026 L18.0968421,26.4946352 L16.96,26.4946352 L16.96,5 L5.51578947,7.22103004 L5.51578947,26.5193133 L4,26.5193133 L4,28 Z M23.0484211,15.9324034 L24.5642105,15.9324034 L24.5642105,17.8572961 L23.0484211,17.8572961 L23.0484211,15.9324034 Z M23.0484211,19.3626609 L24.5642105,19.3626609 L24.5642105,21.2875536 L23.0484211,21.2875536 L23.0484211,19.3626609 Z M23.0484211,22.7929185 L24.5642105,22.7929185 L24.5642105,24.7178112 L23.0484211,24.7178112 L23.0484211,22.7929185 Z M19.9915789,15.9324034 L21.5073684,15.9324034 L21.5073684,17.8572961 L19.9915789,17.8572961 L19.9915789,15.9324034 Z M19.9915789,19.3626609 L21.5073684,19.3626609 L21.5073684,21.2875536 L19.9915789,21.2875536 L19.9915789,19.3626609 Z M19.9915789,22.7929185 L21.5073684,22.7929185 L21.5073684,24.7178112 L19.9915789,24.7178112 L19.9915789,22.7929185 Z M13.5242105,9.09656652 L15.04,9.09656652 L15.04,11.0214592 L13.5242105,11.0214592 L13.5242105,9.09656652 Z M13.5242105,12.526824 L15.04,12.526824 L15.04,14.4517167 L13.5242105,14.4517167 L13.5242105,12.526824 Z M13.5242105,15.9324034 L15.04,15.9324034 L15.04,17.8572961 L13.5242105,17.8572961 L13.5242105,15.9324034 Z M13.5242105,19.3626609 L15.04,19.3626609 L15.04,21.2875536 L13.5242105,21.2875536 L13.5242105,19.3626609 Z M10.4673684,9.09656652 L11.9831579,9.09656652 L11.9831579,11.0214592 L10.4673684,11.0214592 L10.4673684,9.09656652 Z M10.4673684,12.526824 L11.9831579,12.526824 L11.9831579,14.4517167 L10.4673684,14.4517167 L10.4673684,12.526824 Z M10.4673684,15.9324034 L11.9831579,15.9324034 L11.9831579,17.8572961 L10.4673684,17.8572961 L10.4673684,15.9324034 Z M10.4673684,19.3626609 L11.9831579,19.3626609 L11.9831579,21.2875536 L10.4673684,21.2875536 L10.4673684,19.3626609 Z M7.41052632,9.09656652 L8.92631579,9.09656652 L8.92631579,11.0214592 L7.41052632,11.0214592 L7.41052632,9.09656652 Z M7.41052632,12.526824 L8.92631579,12.526824 L8.92631579,14.4517167 L7.41052632,14.4517167 L7.41052632,12.526824 Z M7.41052632,15.9324034 L8.92631579,15.9324034 L8.92631579,17.8572961 L7.41052632,17.8572961 L7.41052632,15.9324034 Z M7.41052632,19.3626609 L8.92631579,19.3626609 L8.92631579,21.2875536 L7.41052632,21.2875536 L7.41052632,19.3626609 Z M9.78526316,22.7929185 L12.6905263,22.7929185 L12.6905263,26.5193133 L9.78526316,26.5193133 L9.78526316,22.7929185 Z" id="Shape" fill="#000000"></path>
    </g>
</svg>