<?xml version="1.0" encoding="UTF-8"?>
<svg width="32px" height="32px" viewBox="0 0 32 32" version="1.1" xmlns="http://www.w3.org/2000/svg" xmlns:xlink="http://www.w3.org/1999/xlink">
    <title>Icon/32/Dots-Drag</title>
    <g id="Icon/32/Dots-Drag" stroke="none" stroke-width="1" fill="none" fill-rule="evenodd">
        <path d="M13,21 C14.1045695,21 15,21.8954305 15,23 C15,24.1045695 14.1045695,25 13,25 C11.8954305,25 11,24.1045695 11,23 C11,21.8954305 11.8954305,21 13,21 Z M20,21 C21.1045695,21 22,21.8954305 22,23 C22,24.1045695 21.1045695,25 20,25 C18.8954305,25 18,24.1045695 18,23 C18,21.8954305 18.8954305,21 20,21 Z M13,14 C14.1045695,14 15,14.8954305 15,16 C15,17.1045695 14.1045695,18 13,18 C11.8954305,18 11,17.1045695 11,16 C11,14.8954305 11.8954305,14 13,14 Z M20,14 C21.1045695,14 22,14.8954305 22,16 C22,17.1045695 21.1045695,18 20,18 C18.8954305,18 18,17.1045695 18,16 C18,14.8954305 18.8954305,14 20,14 Z M13,7 C14.1045695,7 15,7.8954305 15,9 C15,10.1045695 14.1045695,11 13,11 C11.8954305,11 11,10.1045695 11,9 C11,7.8954305 11.8954305,7 13,7 Z M20,7 C21.1045695,7 22,7.8954305 22,9 C22,10.1045695 21.1045695,11 20,11 C18.8954305,11 18,10.1045695 18,9 C18,7.8954305 18.8954305,7 20,7 Z" id="Combined-Shape" fill="#000000"></path>
    </g>
</svg>