<?xml version="1.0" encoding="UTF-8"?>
<svg width="32px" height="32px" viewBox="0 0 32 32" version="1.1" xmlns="http://www.w3.org/2000/svg" xmlns:xlink="http://www.w3.org/1999/xlink">
    <title>Icon/32/Dots-Grid</title>
    <g id="Icon/32/Dots-Grid" stroke="none" stroke-width="1" fill="none" fill-rule="evenodd">
        <path d="M9,21 C10.1045695,21 11,21.8954305 11,23 C11,24.1045695 10.1045695,25 9,25 C7.8954305,25 7,24.1045695 7,23 C7,21.8954305 7.8954305,21 9,21 Z M16,21 C17.1045695,21 18,21.8954305 18,23 C18,24.1045695 17.1045695,25 16,25 C14.8954305,25 14,24.1045695 14,23 C14,21.8954305 14.8954305,21 16,21 Z M23,21 C24.1045695,21 25,21.8954305 25,23 C25,24.1045695 24.1045695,25 23,25 C21.8954305,25 21,24.1045695 21,23 C21,21.8954305 21.8954305,21 23,21 Z M9,14 C10.1045695,14 11,14.8954305 11,16 C11,17.1045695 10.1045695,18 9,18 C7.8954305,18 7,17.1045695 7,16 C7,14.8954305 7.8954305,14 9,14 Z M16,14 C17.1045695,14 18,14.8954305 18,16 C18,17.1045695 17.1045695,18 16,18 C14.8954305,18 14,17.1045695 14,16 C14,14.8954305 14.8954305,14 16,14 Z M23,14 C24.1045695,14 25,14.8954305 25,16 C25,17.1045695 24.1045695,18 23,18 C21.8954305,18 21,17.1045695 21,16 C21,14.8954305 21.8954305,14 23,14 Z M9,7 C10.1045695,7 11,7.8954305 11,9 C11,10.1045695 10.1045695,11 9,11 C7.8954305,11 7,10.1045695 7,9 C7,7.8954305 7.8954305,7 9,7 Z M16,7 C17.1045695,7 18,7.8954305 18,9 C18,10.1045695 17.1045695,11 16,11 C14.8954305,11 14,10.1045695 14,9 C14,7.8954305 14.8954305,7 16,7 Z M23,7 C24.1045695,7 25,7.8954305 25,9 C25,10.1045695 24.1045695,11 23,11 C21.8954305,11 21,10.1045695 21,9 C21,7.8954305 21.8954305,7 23,7 Z" id="Combined-Shape" fill="#000000"></path>
    </g>
</svg>