<?xml version="1.0" encoding="UTF-8"?>
<svg width="32px" height="32px" viewBox="0 0 32 32" version="1.1" xmlns="http://www.w3.org/2000/svg" xmlns:xlink="http://www.w3.org/1999/xlink">
    <title>Icon/32/FAQ</title>
    <g id="Icon/32/FAQ" stroke="none" stroke-width="1" fill="none" fill-rule="evenodd">
        <g id="FAQ" transform="translate(6.000000, 6.000000)" fill="#000000">
            <path d="M18,0 L2,0 C0.8954305,0 0,0.8954305 0,2 L0,17 C0,18.1045695 0.8954305,19 2,19 L7.17,19 C7.70304458,18.9995776 8.21420362,19.2119606 8.59,19.59 L10,21 L11.41,19.59 C11.7857964,19.2119606 12.2969554,18.9995776 12.83,19 L18,19 C19.1045695,19 20,18.1045695 20,17 L20,2 C20,0.8954305 19.1045695,0 18,0 Z M10,17 C9.44771525,17 9,16.5522847 9,16 C9,15.4477153 9.44771525,15 10,15 C10.5522847,15 11,15.4477153 11,16 C11,16.5522847 10.5522847,17 10,17 Z M11.54,11 C11.1978002,11.1770344 10.9877407,11.5349135 11,11.92 L11,13 L9,13 L9,11.92 C8.99182818,10.7197164 9.69988425,9.63009676 10.8,9.15 C11.7846087,8.72612297 12.3065476,7.64171132 12.0236113,6.60775142 C11.740675,5.57379152 10.7393175,4.90621985 9.67607128,5.04272477 C8.61282511,5.17922969 7.81257545,6.07810081 7.8,7.15 L5.8,7.15 C5.82031885,5.92570245 6.38026708,4.77286786 7.33,4 C8.46123454,3.04335563 10.0174308,2.76410854 11.4107021,3.26775033 C12.8039734,3.77139211 13.8219236,4.98114545 14.08,6.44 C14.4269712,8.37087275 13.3643412,10.2785864 11.54,11 L11.54,11 Z" id="Shape"></path>
        </g>
    </g>
</svg>