<?xml version="1.0" encoding="UTF-8"?>
<svg width="32px" height="32px" viewBox="0 0 32 32" version="1.1" xmlns="http://www.w3.org/2000/svg" xmlns:xlink="http://www.w3.org/1999/xlink">
    <title>Icon/32/Guides&amp;Manuals</title>
    <g id="Icon/32/Guides&amp;Manuals" stroke="none" stroke-width="1" fill="none" fill-rule="evenodd">
        <g id="Guides&amp;Manuals" transform="translate(7.000000, 5.000000)" fill="#000000">
            <path d="M3,18 L18,18 L18,2 C18,0.8954305 17.1045695,0 16,0 L2,0 C0.8954305,0 0,0.8954305 0,2 L0,20 C0,21.1045695 0.8954305,22 2,22 L16,22 C17.1045695,22 18,21.1045695 18,20 L3,20 C2.44771525,20 2,19.5522847 2,19 C2,18.4477153 2.44771525,18 3,18 Z M4,5 L14,5 L14,7 L4,7 L4,5 Z M4,11 L14,11 L14,13 L4,13 L4,11 Z" id="Shape"></path>
        </g>
    </g>
</svg>