<?xml version="1.0" encoding="UTF-8"?>
<svg width="32px" height="32px" viewBox="0 0 32 32" version="1.1" xmlns="http://www.w3.org/2000/svg" xmlns:xlink="http://www.w3.org/1999/xlink">
    <title>Icon/32/Invoices</title>
    <g id="Icon/32/Invoices" stroke="none" stroke-width="1" fill="none" fill-rule="evenodd">
        <g id="Invoices" transform="translate(6.000000, 5.000000)" fill="#000000">
            <path d="M18,4 L18,22 L16,21 L14,22 L12,21 L10,22 L8,21 L6,22 L4,21 L2,22 L2,4 L18,4 Z M9,16 L5,16 L5,18 L9,18 L9,16 Z M15,16 L11,16 L11,18 L15,18 L15,16 Z M9,11 L5,11 L5,13 L9,13 L9,11 Z M15,11 L11,11 L11,13 L15,13 L15,11 Z M15,6 L5,6 L5,8 L15,8 L15,6 Z M18,0 C19.0543618,0 19.9181651,0.815877791 19.9945143,1.85073766 L20,2 L0,2 C0,0.8954305 0.8954305,0 2,0 L18,0 Z" id="Combined-Shape"></path>
        </g>
    </g>
</svg>