<?xml version="1.0" encoding="UTF-8"?>
<svg width="32px" height="32px" viewBox="0 0 32 32" version="1.1" xmlns="http://www.w3.org/2000/svg" xmlns:xlink="http://www.w3.org/1999/xlink">
    <title>Icon/32/Mobile_Onboarding</title>
    <g id="Icon/32/Mobile_Onboarding" stroke="none" stroke-width="1" fill="none" fill-rule="evenodd">
        <g id="Mobile_Onboarding" transform="translate(8.000000, 5.000000)" fill="#000000">
            <path d="M14,2 C15.1045695,2 16,2.8954305 16,4 L16,4 L16,20 C16,21.1045695 15.1045695,22 14,22 L14,22 L4,22 C2.8954305,22 2,21.1045695 2,20 L2,20 L13,20 C13.5522847,20 14,19.5522847 14,19 L14,19 Z M10,0 C11.1045695,0 12,0.8954305 12,2 L12,2 L12,17 C12,17.5522847 11.5522847,18 11,18 L11,18 L2,18 C0.8954305,18 0,17.1045695 0,16 L0,16 L0,2 C0,0.8954305 0.8954305,0 2,0 L2,0 Z M10,2 L2,2 L2,15 L10,15 L10,2 Z M6,5.17 L8.91,8.09 L7,8.09 L7,12 L5,12 L5,8.09 L3.09,8.09 L6,5.17 Z" id="Combined-Shape"></path>
        </g>
    </g>
</svg>