<?xml version="1.0" encoding="UTF-8"?>
<svg width="32px" height="32px" viewBox="0 0 32 32" version="1.1" xmlns="http://www.w3.org/2000/svg" xmlns:xlink="http://www.w3.org/1999/xlink">
    <title>Icon/32/News_Updates</title>
    <g id="Icon/32/News_Updates" stroke="none" stroke-width="1" fill="none" fill-rule="evenodd">
        <g id="News_Updates" transform="translate(5.000000, 7.000000)" fill="#000000">
            <path d="M6,5 L6,18 C6,18.5522847 5.55228475,19 5,19 C4.44771525,19 4,18.5522847 4,18 L4,18 L4,13 C1.790861,13 0,11.209139 0,9 C0,6.790861 1.790861,5 4,5 L4,5 L6,5 Z M17.305178,0.174099682 C17.716917,0.306038134 17.9972322,0.687647057 18,1.12 L18,16.88 C17.9972322,17.3123529 17.716917,17.6939619 17.305178,17.8259003 C16.893439,17.9578388 16.4435376,17.8102219 16.19,17.46 L15.91,17.07 C14.1439285,14.6032548 11.333462,13.105227 8.3131594,13.0053293 L8,13 L8,5 C11.1383949,4.99693339 14.0830295,3.48180537 15.91,0.93 L16.19,0.54 C16.4435376,0.189778081 16.893439,0.0421612298 17.305178,0.174099682 Z M20,6.18 C21.1864534,6.6106251 21.9764767,7.73781549 21.9764767,9 C21.9764767,10.2621845 21.1864534,11.3893749 20,11.82 L20,11.82 Z" id="Combined-Shape"></path>
        </g>
    </g>
</svg>