<?xml version="1.0" encoding="UTF-8"?>
<svg width="32px" height="32px" viewBox="0 0 32 32" version="1.1" xmlns="http://www.w3.org/2000/svg" xmlns:xlink="http://www.w3.org/1999/xlink">
    <title>Icon/32/Settings</title>
    <g id="Icon/32/Settings" stroke="none" stroke-width="1" fill="none" fill-rule="evenodd">
        <g id="Settings" transform="translate(5.000000, 5.000000)" fill="#000000">
            <path d="M20,8.69 L21.46,7.49 C20.98484,6.08095339 20.2258858,4.78426487 19.23,3.68 L17.56,4.31 C16.7156511,4.64238399 15.7662292,4.57473705 14.9775358,4.12599771 C14.1888424,3.67725838 13.6456384,2.89565266 13.5,2 L13.2,0.22 C11.748,-0.0733333333 10.252,-0.0733333333 8.8,0.22 L8.5,2 C8.35025678,2.88037044 7.81609196,3.64826513 7.04276874,4.09485929 C6.26944552,4.54145345 5.33736449,4.62031574 4.5,4.31 L2.81,3.68 C1.81411421,4.78426487 1.05516004,6.08095339 0.58,7.49 L2,8.69 C2.68781095,9.2599397 3.08586834,10.106739 3.08586834,11 C3.08586834,11.893261 2.68781095,12.7400603 2,13.31 L0.54,14.51 C1.01516004,15.9190466 1.77411421,17.2157351 2.77,18.32 L4.44,17.69 C5.27736449,17.3796843 6.20944552,17.4585466 6.98276874,17.9051407 C7.75609196,18.3517349 8.29025678,19.1196296 8.44,20 L8.74,21.78 C10.192,22.0733333 11.688,22.0733333 13.14,21.78 L13.5,20 C13.6497432,19.1196296 14.183908,18.3517349 14.9572313,17.9051407 C15.7305545,17.4585466 16.6626355,17.3796843 17.5,17.69 L19.17,18.32 C20.1658858,17.2157351 20.92484,15.9190466 21.4,14.51 L20,13.31 C19.3121891,12.7400603 18.9141317,11.893261 18.9141317,11 C18.9141317,10.106739 19.3121891,9.2599397 20,8.69 Z M11,15 C8.790861,15 7,13.209139 7,11 C7,8.790861 8.790861,7 11,7 C13.209139,7 15,8.790861 15,11 C15,12.060866 14.5785726,13.0782816 13.8284271,13.8284271 C13.0782816,14.5785726 12.060866,15 11,15 Z" id="Shape"></path>
        </g>
    </g>
</svg>