<?xml version="1.0" encoding="UTF-8"?>
<svg width="32px" height="32px" viewBox="0 0 32 32" version="1.1" xmlns="http://www.w3.org/2000/svg" xmlns:xlink="http://www.w3.org/1999/xlink">
    <title>Icon/32/Site_Management</title>
    <g id="Icon/32/Site_Management" stroke="none" stroke-width="1" fill="none" fill-rule="evenodd">
        <g id="Site_Management" transform="translate(5.000000, 6.000000)" fill="#000000">
            <path d="M15,18 C16.0543618,18 16.9181651,18.8158778 16.9945143,19.8507377 L17,20 L5,20 C5,18.8954305 5.8954305,18 7,18 L15,18 Z M20,0 C21.1045695,0 22,0.8954305 22,2 L22,2 L22,14 C22,15.1045695 21.1045695,16 20,16 L20,16 L2,16 C0.8954305,16 0,15.1045695 0,14 L0,14 L0,2 C0,0.8954305 0.8954305,0 2,0 L2,0 Z M11,2 C10.6016608,1.98707773 10.2030252,2.01387677 9.81,2.08 L9.81,2.08 L9.65,3.08 C9.57101759,3.56344998 9.27879759,3.98574527 8.85419836,4.23003524 C8.42959912,4.47432521 7.91764663,4.5147045 7.46,4.34 L7.46,4.34 L6.55,4 C6.00325542,4.59137831 5.58451283,5.28928264 5.32,6.05 L5.32,6.05 L6.11,6.71 C6.48399177,7.02158913 6.70023812,7.48321706 6.70023812,7.97 C6.70023812,8.45678294 6.48399177,8.91841087 6.11,9.23 L6.11,9.23 L5.32,9.89 C5.57905783,10.656982 5.99448578,11.3618474 6.54,11.96 L6.54,11.96 L7.45,11.62 C7.90764663,11.4452955 8.41959912,11.4856748 8.84419836,11.7299648 C9.26879759,11.9742547 9.56101759,12.39655 9.64,12.88 L9.64,12.88 L9.8,13.88 C10.1949547,13.9602 10.596985,14.000403 11,14 C11.4083237,14.0145294 11.8170701,13.9877264 12.22,13.92 L12.22,13.92 L12.38,12.92 C12.4589824,12.43655 12.7512024,12.0142547 13.1758016,11.7699648 C13.6004009,11.5256748 14.1123534,11.4852955 14.57,11.66 L14.57,11.66 L15.48,12 C16.0238277,11.398529 16.435969,10.6900547 16.69,9.92 L16.69,9.92 L15.9,9.26 C15.5353718,8.94989256 15.324424,8.49596048 15.3225017,8.01729919 C15.3205794,7.5386379 15.5278744,7.08302613 15.89,6.77 L15.89,6.77 L16.68,6.11 C16.4247111,5.34349633 16.0126343,4.63853848 15.47,4.04 L15.47,4.04 L14.56,4.38 C14.1023534,4.5547045 13.5904009,4.51432521 13.1658016,4.27003524 C12.7412024,4.02574527 12.4489824,3.60344998 12.37,3.12 L12.37,3.12 L12.21,2.12 C11.8117098,2.03953451 11.4063364,1.99933219 11,2 Z M11.01,5.01 C12.6613314,5.01 14,6.3486686 14,8 C14,9.6513314 12.6613314,10.99 11.01,10.99 C9.3586686,10.99 8.02,9.6513314 8.02,8 C8.02,6.3486686 9.3586686,5.01 11.01,5.01 Z" id="Combined-Shape"></path>
        </g>
    </g>
</svg>