<?xml version="1.0" encoding="UTF-8"?>
<svg width="32px" height="32px" viewBox="0 0 32 32" version="1.1" xmlns="http://www.w3.org/2000/svg" xmlns:xlink="http://www.w3.org/1999/xlink">
    <title>Icon/32/Support_Tickets</title>
    <g id="Icon/32/Support_Tickets" stroke="none" stroke-width="1" fill="none" fill-rule="evenodd">
        <g id="Support_Tickets" transform="translate(7.000000, 5.000000)" fill="#000000">
            <path d="M16,3 L13.22,3 C12.793765,2.99683433 12.4163872,2.72383765 12.28,2.32 C11.7876025,0.931002795 10.4736922,0.0027553483 9,0.0027553483 C7.52630784,0.0027553483 6.21239754,0.931002795 5.72,2.32 C5.58361279,2.72383765 5.20623503,2.99683433 4.78,3 L2,3 C0.8954305,3 0,3.8954305 0,5 L0,20 C0,21.1045695 0.8954305,22 2,22 L16,22 C17.1045695,22 18,21.1045695 18,20 L18,5 C18,3.8954305 17.1045695,3 16,3 Z M9,2 C9.55228475,2 10,2.44771525 10,3 C10,3.55228475 9.55228475,4 9,4 C8.44771525,4 8,3.55228475 8,3 C8,2.44771525 8.44771525,2 9,2 Z M8,19 L3,19 L3,17 L8,17 L8,19 Z M8,14 L3,14 L3,12 L8,12 L8,14 Z M15,19 L10,19 L10,17 L15,17 L15,19 Z M15,14 L10,14 L10,12 L15,12 L15,14 Z M15,9 L3,9 L3,7 L15,7 L15,9 Z" id="Shape"></path>
        </g>
    </g>
</svg>