<?xml version="1.0" encoding="UTF-8"?>
<svg width="32px" height="32px" viewBox="0 0 32 32" version="1.1" xmlns="http://www.w3.org/2000/svg" xmlns:xlink="http://www.w3.org/1999/xlink">
    <title>Icon/32/User_Management</title>
    <g id="Icon/32/User_Management" stroke="none" stroke-width="1" fill="none" fill-rule="evenodd">
        <g id="User_Management" transform="translate(5.000000, 5.000000)" fill="#000000">
            <path d="M20,2 C21.1045695,2 22,2.8954305 22,4 L22,4 L22,20 C22,21.1045695 21.1045695,22 20,22 L20,22 L4,22 C2.8954305,22 2,21.1045695 2,20 L2,20 L20,20 Z M16,0 C17.1045695,0 18,0.8954305 18,2 L18,2 L18,18 L2,18 C0.8954305,18 0,17.1045695 0,16 L0,16 L0,2 C0,0.8954305 0.8954305,0 2,0 L2,0 Z M13.89,12.16 C10.8140899,10.6106348 7.18591008,10.6106348 4.11,12.16 C3.43355631,12.4961186 3.00418326,13.1846628 3,13.94 L3,13.94 L3,15 L15,15 L15,13.94 C14.9958167,13.1846628 14.5664437,12.4961186 13.89,12.16 Z M9,3 C7.34314575,3 6,4.34314575 6,6 C6,7.65685425 7.34314575,9 9,9 C10.6568542,9 12,7.65685425 12,6 C12,4.34314575 10.6568542,3 9,3 Z" id="Combined-Shape"></path>
        </g>
    </g>
</svg>