<?xml version="1.0" encoding="UTF-8"?>
<svg width="32px" height="32px" viewBox="0 0 32 32" version="1.1" xmlns="http://www.w3.org/2000/svg" xmlns:xlink="http://www.w3.org/1999/xlink">
    <title>Icon/32/WorkSmart</title>
    <g id="Icon/32/WorkSmart" stroke="none" stroke-width="1" fill="none" fill-rule="evenodd">
        <g id="WorkSmart" transform="translate(5.000000, 6.000000)" fill="#000000">
            <path d="M15,18 C16.0543618,18 16.9181651,18.8158778 16.9945143,19.8507377 L17,20 L5,20 C5,18.8954305 5.8954305,18 7,18 L15,18 Z M20,0 C21.1045695,0 22,0.8954305 22,2 L22,2 L22,14 C22,15.1045695 21.1045695,16 20,16 L20,16 L2,16 C0.8954305,16 0,15.1045695 0,14 L0,14 L0,2 C0,0.8954305 0.8954305,0 2,0 L2,0 Z M15.89,11.16 C12.8140899,9.6106348 9.18591008,9.6106348 6.11,11.16 C5.43355631,11.4961186 5.00418326,12.1846628 5,12.94 L5,12.94 L5,14 L17,14 L17,12.94 C16.9958167,12.1846628 16.5664437,11.4961186 15.89,11.16 Z M11,2 C9.34314575,2 8,3.34314575 8,5 C8,6.65685425 9.34314575,8 11,8 C12.6568542,8 14,6.65685425 14,5 C14,3.34314575 12.6568542,2 11,2 Z" id="Combined-Shape"></path>
        </g>
    </g>
</svg>