<?xml version="1.0" encoding="UTF-8"?>
<svg width="32px" height="32px" viewBox="0 0 32 32" version="1.1" xmlns="http://www.w3.org/2000/svg" xmlns:xlink="http://www.w3.org/1999/xlink">
    <title>Icon/32/Connectivity</title>
    <g id="Icon/32/Connectivity" stroke="none" stroke-width="1" fill="none" fill-rule="evenodd">
        <g id="Connectivity" transform="translate(5.000000, 5.000000)" fill="#ffffff">
            <path d="M21.26,8.14 C20.6076622,6.96541328 19.2539104,6.36778906 17.9464474,6.67720646 C16.6389844,6.98662386 15.6966855,8.1276195 15.64,9.47 L14.28,9.91 C13.763969,10.0549035 13.2097454,9.94331488 12.79,9.61 L12.73,9.61 C12.2776216,9.29987474 12.0051108,8.78845033 12,8.24 L12,6.82 C13.3775467,6.3329637 14.2038721,4.92433377 13.9567957,3.48426694 C13.7097193,2.04420011 12.4611089,0.991572875 11,0.991572875 C9.5388911,0.991572875 8.29028073,2.04420011 8.04320432,3.48426694 C7.79612791,4.92433377 8.62245331,6.3329637 10,6.82 L10,8.24 C9.98210317,8.77421988 9.71105816,9.2680416 9.27,9.57 L9.21,9.57 C8.79785492,9.91116022 8.24246264,10.0237397 7.73,9.87 L6.38,9.44 C6.33385886,7.98012543 5.24303119,6.76564619 3.79646829,6.56361016 C2.3499054,6.36157413 0.968067632,7.23070543 0.52370415,8.62207305 C0.0793406682,10.0134407 0.701610891,11.5226274 1.99749776,12.1964523 C3.29338464,12.8702772 4.88622354,12.5128852 5.77,11.35 L7.11,11.78 C7.59992104,11.9658586 7.971536,12.374635 8.11,12.88 L8.11,13 C8.30642107,13.4800527 8.26567816,14.0245261 8,14.47 L7.18,15.6 C5.77986688,15.183781 4.28346632,15.8364814 3.63599051,17.1458271 C2.98851471,18.4551728 3.37818306,20.0405406 4.55886394,20.9005427 C5.73954483,21.7605448 7.36801765,21.6451811 8.41566757,20.6273203 C9.46331749,19.6094594 9.62559563,17.9849908 8.8,16.78 L9.63,15.63 C9.95204443,15.1939096 10.4580122,14.9316927 11,14.92 L11,14.92 C11.5498351,14.9223297 12.0658218,15.1858913 12.39,15.63 L13.23,16.78 C12.4044044,17.9849908 12.5666825,19.6094594 13.6143324,20.6273203 C14.6619824,21.6451811 16.2904552,21.7605448 17.4711361,20.9005427 C18.6518169,20.0405406 19.0414853,18.4551728 18.3940095,17.1458271 C17.7465337,15.8364814 16.2501331,15.183781 14.85,15.6 L14,14.46 C13.7254899,14.0236571 13.6665071,13.4854391 13.84,13 L13.84,13 C13.9771332,12.4916382 14.3486535,12.0792507 14.84,11.89 L16.19,11.46 C17.1613435,12.6288412 18.8532928,12.8866749 20.1286977,12.0602125 C21.4041026,11.2337501 21.860007,9.58410717 21.19,8.22 L21.26,8.14 Z M11,13 C10.4477153,13 10,12.5522847 10,12 C10,11.4477153 10.4477153,11 11,11 C11.5522847,11 12,11.4477153 12,12 C12,12.5522847 11.5522847,13 11,13 Z" id="Shape"></path>
        </g>
    </g>
</svg>