<?xml version="1.0" encoding="UTF-8"?>
<svg width="32px" height="32px" viewBox="0 0 32 32" version="1.1" xmlns="http://www.w3.org/2000/svg" xmlns:xlink="http://www.w3.org/1999/xlink">
    <title>Icon/32/Team</title>
    <g id="Icon/32/Team" stroke="none" stroke-width="1" fill="none" fill-rule="evenodd">
        <g id="Team" transform="translate(5.000000, 7.000000)" fill="#ffffff">
            <path d="M8.37201102,7.12619038 C10.1324423,6.34206277 12.1574152,6.38333265 13.89,7.25 L13.89,7.25 L14.029189,7.32612525 C14.6159276,7.67789579 14.9857309,8.30869131 15,9 L15,9 L15,19 L7,19 L7,9 C7.01536676,8.25551372 7.44306899,7.58120839 8.11,7.25 L8.11,7.25 Z M17,8.2 C18.2959528,8.01524129 19.6174668,8.2279388 20.79,8.81 C21.4696577,9.14773001 21.8995973,9.84105603 21.9,10.6 L21.9,10.6 L21.9,17 C21.9,18.1045695 21.0045695,19 19.9,19 L19.9,19 L17,19 Z M1.11,8.81 C2.31254832,8.20975271 3.67354883,8.00332846 5,8.22 L5,8.22 L5,19 L2,19 C0.8954305,19 0,18.1045695 0,17 L0,17 L0,10.6 C0.000402725292,9.84105603 0.430342321,9.14773001 1.11,8.81 Z M4,2.6 C5.1045695,2.6 6,3.4954305 6,4.6 C6,5.7045695 5.1045695,6.6 4,6.6 C2.8954305,6.6 2,5.7045695 2,4.6 C2,3.4954305 2.8954305,2.6 4,2.6 Z M17.9,2.6 C19.0045695,2.6 19.9,3.4954305 19.9,4.6 C19.9,5.7045695 19.0045695,6.6 17.9,6.6 C16.7954305,6.6 15.9,5.7045695 15.9,4.6 C15.9,3.4954305 16.7954305,2.6 17.9,2.6 Z M11,0 C12.3807119,0 13.5,1.11928813 13.5,2.5 C13.5,3.88071187 12.3807119,5 11,5 C9.61928813,5 8.5,3.88071187 8.5,2.5 C8.5,1.11928813 9.61928813,0 11,0 Z" id="Combined-Shape"></path>
        </g>
    </g>
</svg>