<?xml version="1.0" encoding="UTF-8"?>
<svg width="64px" height="64px" viewBox="0 0 64 64" version="1.1" xmlns="http://www.w3.org/2000/svg" xmlns:xlink="http://www.w3.org/1999/xlink">
    <title>Icon/64/Alarming Service</title>
    <g id="Icon/64/Alarming-Service" stroke="none" stroke-width="1" fill="none" fill-rule="evenodd">
        <g id="Alarming-Service" transform="translate(9.000000, 11.000000)" fill="#E6003C">
            <path d="M26.5,40 C26.5,41.1045695 25.6045695,42 24.5,42 L24.5,42 L21.5,42 C20.3954305,42 19.5,41.1045695 19.5,40 L19.5,40 Z M23,8 C24.6568542,8 26,9.34314575 26,11 L26,11 L26,12.43 C30.7286018,13.7704289 33.9941881,18.0850848 34,23 L34,23 L34,28.55 C34.0095335,31.3261584 34.6561336,34.0630903 35.89,36.55 L35.89,36.55 L36.62,38 L9.38,38 L10.11,36.53 C11.3438664,34.0430903 11.9904665,31.3061584 12,28.53 L12,28.53 L12,23 C12.0058119,18.0850848 15.2713982,13.7704289 20,12.43 L20,12.43 L20,11 C20,9.34314575 21.3431458,8 23,8 Z M23,14.0000002 C18.0294373,14.0000002 14.0000001,18.0294373 14,23.0000002 L14,23.0000002 L14,28.53 C13.9957254,31.0895162 13.5036099,33.6247591 12.55,36.0000002 L12.55,36.0000002 L33.45,36.0000002 C32.4963901,33.6247591 32.0042746,31.0895162 32,28.53 L32,28.53 L32,23.0000002 C31.9999999,18.0294373 27.9705627,14.0000002 23,14.0000002 Z M23,16 L23,18 C20.2385763,18 18,20.2385763 18,23 L18,23 L16,23 C16,19.1340068 19.1340068,16 23,16 L23,16 Z M31.11,6.08 C34.8802882,7.7431666 37.8540206,10.8101644 39.4,14.63 L39.4,14.63 L37.54,15.37 C36.1942682,12.0385057 33.599672,9.36495906 30.31,7.92 L30.31,7.92 Z M14.49,6.08 L15.29,7.92 C11.9996287,9.36726551 9.40261873,12.0396031 8.05,15.37 L8.05,15.37 L6.2,14.63 C7.74597942,10.8101644 10.7197118,7.7431666 14.49,6.08 L14.49,6.08 Z M33.21,0.08 C38.800409,2.3916911 43.2014165,6.89025788 45.39,12.53 L45.39,12.53 L43.53,13.25 C41.5381149,8.11919628 37.5350905,4.0258509 32.45,1.92 L32.45,1.92 Z M12.39,0.08 L13.15,1.92 C8.06490953,4.0258509 4.0618851,8.11919628 2.07,13.25 L2.07,13.25 L0.21,12.53 C2.39858348,6.89025788 6.79959098,2.3916911 12.39,0.08 L12.39,0.08 Z M23,10 C22.4477153,10 22,10.4477153 22,11 L22,11 L22,12.05 C22.33,12 22.66,12 23,12 C23.34,12 23.67,12.05 24,12.05 L24,12.05 L24,11 C24,10.4477153 23.5522847,10 23,10 Z" id="Combined-Shape"></path>
        </g>
    </g>
</svg>