<?xml version="1.0" encoding="UTF-8"?>
<svg width="64px" height="64px" viewBox="0 0 64 64" version="1.1" xmlns="http://www.w3.org/2000/svg" xmlns:xlink="http://www.w3.org/1999/xlink">
    <title>Icon/64/Business Numbers Change Request</title>
    <g id="Icon/64/Business-Numbers-Change-Request" stroke="none" stroke-width="1" fill="none" fill-rule="evenodd">
        <g id="Business-Numbers-Change-Request" transform="translate(9.000000, 9.000000)" fill="#E6003C">
            <path d="M5.24,8.11 C6.80130993,6.5524668 9.32869007,6.5524668 10.89,8.11 L10.89,8.11 L15.4,12.62 C16.9575332,14.1813099 16.9575332,16.7086901 15.4,18.27 L15.4,18.27 L10.57,23.1 C13.0490658,28.3319472 17.2353652,32.5640949 22.44,35.1 L22.44,35.1 L27.34,30.19 C28.9240875,28.6788864 31.4159125,28.6788864 33,30.19 L33,30.19 L37.8,34.94 C38.5511082,35.690273 38.9731466,36.708363 38.9731466,37.77 C38.9731466,38.831637 38.5511082,39.849727 37.8,40.6 L37.8,40.6 L34.87,43.53 C33.9272431,44.4757296 32.6453538,45.0050491 31.31,45.0000358 L31.31,45.0000358 L31,45.0000358 C14.7660236,44.0461449 1.81001051,31.1030191 0.84,14.87 C0.758231159,13.4316919 1.2885845,12.0258923 2.3,11 L2.3,11 Z M8.065,8.90342669 C7.5341815,8.90342669 7.02513651,9.11444591 6.65,9.49 L6.65,9.49 L3.72,12.42 C3.10289358,13.0324554 2.78184311,13.8825095 2.84,14.75 C3.72547361,29.982577 15.8686907,42.1429819 31.1,43.05 C31.9697154,43.1032054 32.8208664,42.7831144 33.44,42.17 L33.44,42.17 L36.37,39.23 C37.1454472,38.4499251 37.1454472,37.1900749 36.37,36.41 L36.37,36.41 L31.61,31.65 C30.8299251,30.8745528 29.5700749,30.8745528 28.79,31.65 L28.79,31.65 L22.89,37.55 L22.26,37.26 C16.094849,34.4525844 11.1839242,29.466874 8.47,23.26 L8.47,23.26 L8.2,22.63 L14,16.83 C14.3755541,16.4548635 14.5865733,15.9458185 14.5865733,15.415 C14.5865733,14.8841815 14.3755541,14.3751365 14,14 L14,14 L9.48,9.49 C9.10486349,9.11444591 8.5958185,8.90342669 8.065,8.90342669 Z M29.99,1.23 C31.5773665,0.909998603 33.2126335,0.909998603 34.8,1.23 L34.8,1.23 L35.47,1.37 L35.88,3.82 C35.982522,4.41722059 36.3502787,4.93575762 36.88,5.23 C37.3988903,5.52479659 38.0223187,5.57247053 38.58,5.36 L38.58,5.36 L40.9,4.48999895 L41.35,5 C42.4363096,6.20564404 43.2634002,7.62156875 43.78,9.16 L43.78,9.16 L44,9.82 L42.03,11.47 C41.5714594,11.8499598 41.3060878,12.4144927 41.3060878,13.01 C41.3060878,13.6055073 41.5714594,14.1700402 42.03,14.55 L42.03,14.55 L44.03,16.19 L43.81,16.84 C43.2944449,18.3789055 42.4672358,19.795033 41.38,21 L41.38,21 L40.93,21.51 L38.61,20.63 C38.0487168,20.4182444 37.4220225,20.469621 36.9027212,20.7699632 C36.3834199,21.0703053 36.0263612,21.5878904 35.93,22.18 L35.93,22.18 L35.52,24.63 L34.85,24.77 C33.2626335,25.0900014 31.6273665,25.0900014 30.04,24.77 L30.04,24.77 L29.37,24.63 L28.96,22.18 C28.857478,21.5827794 28.4897213,21.0642424 27.96,20.77 C27.4399812,20.4687964 26.8120854,20.4173897 26.25,20.63 L26.25,20.63 L23.94,21.51 L23.48,21 C22.3768644,19.790417 21.5328894,18.3679108 21,16.82 L21,16.82 L20.78,16.17 L22.78,14.53 C23.2385406,14.1500402 23.5039122,13.5855073 23.5039122,12.989999 C23.5039122,12.3944927 23.2385406,11.8299598 22.78,11.45 L22.78,11.45 L20.78,9.81 L21,9.15 C21.5216712,7.61686869 22.3482675,6.2051918 23.43,5 L23.43,5 L23.89,4.48999895 L26.2,5.36 C26.7606025,5.57564163 27.3884395,5.52791133 27.91,5.23 C28.4397213,4.93575762 28.807478,4.41722059 28.91,3.82 L28.91,3.82 L29.32,1.37 Z M33.8,3.06 C32.9140012,2.94065084 32.0159988,2.94065084 31.13,3.06 L31.13,3.06 L30.95,4.13 C30.7520871,5.31056576 30.0358511,6.34044441 28.9979622,6.93684327 C27.9600732,7.53324214 26.7096338,7.633468 25.59,7.21 L25.59,7.21 L24.59,6.83 C24.0340518,7.53298591 23.5796116,8.31058356 23.24,9.14 L23.24,9.14 L24.14,9.89 C25.0570813,10.6499196 25.5878245,11.7789854 25.5878245,12.97 C25.5878245,14.1610146 25.0570813,15.2900804 24.14,16.05 L24.14,16.05 L23.24,16.8 C23.5797328,17.6262717 24.0342005,18.40055 24.59,19.1 L24.59,19.1 L25.59,18.72 C26.7112421,18.2979587 27.9626208,18.4007112 29,19 C30.0370935,19.6051724 30.7406228,20.6512578 30.91,21.84 L30.91,21.84 L31.09,22.91 C31.9759988,23.0293492 32.8740012,23.0293492 33.76,22.91 L33.76,22.91 L33.94,21.84 C34.1353218,20.6576074 34.8505002,19.6250852 35.8887451,19.0265448 C36.9269899,18.4280044 38.1789012,18.3265141 39.3,18.75 L39.3,18.75 L40.3,19.13 C40.8486247,18.4256553 41.3024956,17.6523936 41.65,16.83 L41.65,16.83 L40.74,16.08 C39.8229187,15.3200804 39.2921755,14.1910146 39.2921755,13 C39.2921755,11.8089854 39.8229187,10.6799196 40.74,9.92 L40.74,9.92 L41.69,9.14 C41.3425526,8.31447749 40.8887096,7.53790177 40.34,6.83 L40.34,6.83 L39.34,7.21 C38.2203662,7.633468 36.9699268,7.53324214 35.9320378,6.93684327 C34.8941489,6.34044441 34.1779129,5.31056576 33.98,4.13 L33.98,4.13 Z M32.42,8 C35.1814237,8 37.42,10.2385763 37.42,13 C37.42,15.7614237 35.1814237,18 32.42,18 C29.6585763,18 27.42,15.7614237 27.42,13 C27.42,10.2385763 29.6585763,8 32.42,8 Z M32.42,10 C30.7631458,10 29.42,11.3431458 29.42,13 C29.42,14.6568542 30.7631458,16 32.42,16 C34.0768542,16 35.42,14.6568542 35.42,13 C35.42,11.3431458 34.0768542,10 32.42,10 Z" id="Combined-Shape"></path>
        </g>
    </g>
</svg>