<?xml version="1.0" encoding="UTF-8"?>
<svg width="64px" height="64px" viewBox="0 0 64 64" version="1.1" xmlns="http://www.w3.org/2000/svg" xmlns:xlink="http://www.w3.org/1999/xlink">
    <title>Icon/64/Business DDOS protection</title>
    <g id="Icon/64/Business-DDOS-protection" stroke="none" stroke-width="1" fill="none" fill-rule="evenodd">
        <g id="Business-DDOS-protection" transform="translate(9.000000, 8.000000)" fill="#E6003C">
            <path d="M26.55,0.88 L27,1.11 C30.8630824,3.03015933 35.1160431,4.0360889 39.43,4.05 L39.43,4.05 L45,4.05 L45,23.64 C44.9904861,32.2248421 39.9614112,40.0109137 32.14,43.55 L32.14,43.55 L26.5,46.1 L20.76,43.48 C17.3961467,41.9374238 14.4785104,39.5668444 12.28,36.59 L12.28,36.59 L13.89,35.41 C15.8912456,38.1067449 18.5393211,40.2561569 21.59,41.66 L21.59,41.66 L26.5,43.9 L31.32,41.73 C38.4246934,38.5130925 42.9921272,31.4390448 43,23.64 L43,23.64 L43,6.05 L39.43,6.05 C34.9546605,6.04670348 30.5367561,5.04216835 26.5,3.11 C22.4632439,5.04216835 18.0453395,6.04670348 13.57,6.05 L13.57,6.05 L10,6.05 L10,9 L8,9 L8,4.05 L13.62,4.05 C17.9508536,4.04376869 22.221785,3.03763582 26.1,1.11 L26.1,1.11 L26.55,0.88 Z M26.49,6.42 L26.87,6.57 C30.7208366,8.15520304 34.8360827,8.99996502 39,9.06 L39,9.06 L40,9.06 L40,23.64 C39.9928096,30.2626843 36.1135228,36.269322 30.08,39 L30.08,39 L26.51,40.56 L22.84,38.88 C21.1764464,38.1338314 19.6462227,37.1204382 18.31,35.88 L18.31,35.88 L19.67,34.43 C20.8447787,35.5398612 22.1967206,36.4456623 23.67,37.11 L23.67,37.11 L26.52,38.41 L29.26,37.17 C34.5769504,34.766992 37.9955856,29.474757 38,23.64 L38,23.64 L38,11 C34.0553616,10.8475707 30.1644403,10.0328773 26.49,8.59 C23.4782834,9.78823188 20.314718,10.5622958 17.09,10.89 L17.09,10.89 L16.89,8.89 C20.0599443,8.56996229 23.1661003,7.78836989 26.11,6.57 L26.11,6.57 L26.49,6.42 Z M5.76,24.7099801 C6.89687547,24.7058677 7.93841017,25.3447273 8.45,26.36 L8.45,26.36 L8.62,26.71 L15.1,26.71 C16.6162972,26.7097317 18.0507979,27.3975564 19,28.58 L19,28.58 L20.3,30.21 L19,31.83 C18.0484062,33.0216747 16.6049931,33.7139238 15.08,33.71 L15.08,33.71 L8.62,33.71 L8.45,34.05 C7.94120259,35.0691576 6.89910141,35.7122386 5.76,35.7100058 L5.76,35.7100058 L0.38,35.7100058 L3,30.47 L3,29.94 L0.38,24.7099801 Z M5.76,26.7099757 L3.62,26.7099757 L5,29.47 L5,30.94 L3.62,33.710002 L5.78,33.710002 C6.1623951,33.7107653 6.51174658,33.493391 6.68,33.15 L6.68,33.15 L7.4,31.71 L15.08,31.71 C15.9911257,31.7082162 16.8520656,31.2924632 17.42,30.58 L17.42,30.58 L17.72,30.21 L17.42,29.83 C16.850083,29.1212828 15.9894422,28.7093521 15.08,28.71 L15.08,28.71 L7.38,28.71 L6.66,27.26 C6.48893447,26.9204962 6.14015687,26.7073543 5.76,26.7099757 L5.76,26.7099757 Z M32.29,19.4 L33.71,20.81 L26,28.52 L21.79,24.31 L23.21,22.9 L26,25.69 L32.29,19.4 Z M13.76,11.7099801 C14.8968755,11.7058677 15.9384102,12.3447273 16.45,13.36 L16.45,13.36 L16.62,13.71 L23.1,13.71 C24.6162972,13.7097317 26.0507979,14.3975564 27,15.58 L27,15.58 L28.3,17.21 L27,18.83 C26.0484062,20.0216747 24.6049931,20.7139238 23.08,20.71 L23.08,20.71 L16.62,20.71 L16.45,21.05 C15.9412026,22.0691576 14.8991014,22.7122386 13.76,22.7100058 L13.76,22.7100058 L8.38,22.7100058 L11,17.47 L11,16.94 L8.38,11.7099801 Z M6,20.21 L6,22.21 L0,22.21 L0,20.21 L6,20.21 Z M13.76,13.7099757 L11.62,13.7099757 L13,16.47 L13,17.94 L11.62,20.710002 L13.76,20.710002 C14.1423951,20.7107653 14.4917466,20.493391 14.66,20.15 L14.66,20.15 L15.38,18.71 L23.08,18.71 C23.9911257,18.7082162 24.8520656,18.2924632 25.42,17.58 L25.42,17.58 L25.72,17.21 L25.42,16.83 C24.850083,16.1212828 23.9894422,15.7093521 23.08,15.71 L23.08,15.71 L15.38,15.71 L14.66,14.26 C14.4889345,13.9204962 14.1401569,13.7073543 13.76,13.7099757 L13.76,13.7099757 Z M8,16.21 L8,18.21 L0,18.21 L0,16.21 L8,16.21 Z M6,12.21 L6,14.21 L0,14.21 L0,12.21 L6,12.21 Z" id="Combined-Shape"></path>
        </g>
    </g>
</svg>