<?xml version="1.0" encoding="UTF-8"?>
<svg width="64px" height="64px" viewBox="0 0 64 64" version="1.1" xmlns="http://www.w3.org/2000/svg" xmlns:xlink="http://www.w3.org/1999/xlink">
    <title>Icon/64/Business IP Remote User Admin</title>
    <g id="Icon/64/Business-IP-Remote-User-Admin" stroke="none" stroke-width="1" fill="none" fill-rule="evenodd">
        <g id="Business-IP-Remote-User-Admin" transform="translate(13.000000, 8.000000)" fill="#E6003C">
            <path d="M25,0 C27.7614237,0 30,2.23857625 30,5 L30,5 L30,8 L28,8 L28,5 C28,3.34314575 26.6568542,2 25,2 L25,2 L5,2 C3.34314575,2 2,3.34314575 2,5 L2,5 L2,39 L28,39 L28,37 L30,37 L30,43 C30,45.7614237 27.7614237,48 25,48 L25,48 L5,48 C2.23857625,48 1.77635684e-15,45.7614237 1.77635684e-15,43 L1.77635684e-15,43 L1.77635684e-15,5 C1.77635684e-15,2.23857625 2.23857625,0 5,0 L5,0 Z M28,41 L2,41 L2,43 C2,44.6568542 3.34314575,46 5,46 L5,46 L25,46 C26.6568542,46 28,44.6568542 28,43 L28,43 L28,41 Z M25,8.59 L25.71,9.29 C27.4350237,11.0326959 29.7879372,12.009173 32.24,12 L32.24,12 L37,12 L37,24.85 C36.9823215,28.364583 34.9203689,31.5473318 31.72,33 L31.72,33 L25,36.1 L18.28,33 C15.0796311,31.5473318 13.0176785,28.364583 13,24.85 L13,24.85 L13,12 L17.76,12 C20.2120628,12.009173 22.5649763,11.0326959 24.29,9.29 L24.29,9.29 L25,8.59 Z M25,11.36 C22.9771416,13.0725237 20.4104004,14.0084625 17.76,14 L17.76,14 L15,14 L15,24.85 C15.000403,27.5932875 16.6032054,30.0834952 19.1,31.22 L19.1,31.22 L25,33.9 L30.9,31.22 C33.3967946,30.0834952 34.999597,27.5932875 35,24.85 L35,24.85 L35,14 L32.24,14 C29.5895996,14.0084625 27.0228584,13.0725237 25,11.36 Z M25,17 C26.995571,17.0239195 28.6681956,18.5151202 28.9200729,20.4948762 C29.1719503,22.4746322 27.9260077,24.3371519 26,24.86 L26,24.86 L26,28 L24,28 L24,24.86 C22.0739923,24.3371519 20.8280497,22.4746322 21.0799271,20.4948762 C21.3318044,18.5151202 23.004429,17.0239195 25,17 Z M25,19 C23.8954305,19 23,19.8954305 23,21 C23,22.1045695 23.8954305,23 25,23 C26.1045695,23 27,22.1045695 27,21 C27,19.8954305 26.1045695,19 25,19 Z M19,5 L19,7 L11,7 L11,5 L19,5 Z" id="Combined-Shape"></path>
        </g>
    </g>
</svg>