<?xml version="1.0" encoding="UTF-8"?>
<svg width="64px" height="64px" viewBox="0 0 64 64" version="1.1" xmlns="http://www.w3.org/2000/svg" xmlns:xlink="http://www.w3.org/1999/xlink">
    <title>Icon/64/Business SD-WAN Performance Monitoring</title>
    <g id="Icon/64/Business-SD-WAN-Performance-Monitoring" stroke="none" stroke-width="1" fill="none" fill-rule="evenodd">
        <g id="Business-SD-WAN-Performance-Monitoring" transform="translate(7.000000, 8.000000)" fill="#E6003C">
            <path d="M18.3,11.8 C22.0013975,8.10232383 27.9986025,8.10232383 31.7,11.8 L31.7,11.8 L35.29,15.39 C36.4598135,16.5612702 36.4598135,18.4587298 35.29,19.63 L35.29,19.63 L31.7,23.22 C30.1705683,24.7569261 28.1568399,25.7178631 26,25.94 L26,25.94 L26,31 L36,31 C37.3260824,31 38.597852,31.5267842 39.5355339,32.4644661 C40.4732158,33.402148 41,34.6739176 41,36 L41,36 L41,38.14 C42.9503067,38.643567 44.2219252,40.5187867 43.9681188,42.5170005 C43.7143124,44.5152143 42.0142681,46.0129833 40,46.0129833 C37.9857319,46.0129833 36.2856876,44.5152143 36.0318812,42.5170005 C35.7780748,40.5187867 37.0496933,38.643567 39,38.14 L39,38.14 L39,36 C39,34.3431458 37.6568542,33 36,33 L36,33 L26,33 L26,38.14 C27.9503067,38.643567 29.2219252,40.5187867 28.9681188,42.5170005 C28.7143124,44.5152143 27.0142681,46.0129833 25,46.0129833 C22.9857319,46.0129833 21.2856876,44.5152143 21.0318812,42.5170005 C20.7780748,40.5187867 22.0496933,38.643567 24,38.14 L24,38.14 L24,33 L14,33 C12.3431458,33 11,34.3431458 11,36 L11,36 L11,38.14 C12.9503067,38.643567 14.2219252,40.5187867 13.9681188,42.5170005 C13.7143124,44.5152143 12.0142681,46.0129833 10,46.0129833 C7.98573188,46.0129833 6.28568764,44.5152143 6.03188121,42.5170005 C5.77807479,40.5187867 7.04969328,38.643567 9,38.14 L9,38.14 L9,36 C9,33.2385763 11.2385763,31 14,31 L14,31 L24,31 L24,25.94 C21.8431601,25.7178631 19.8294317,24.7569261 18.3,23.22 L18.3,23.22 L14.71,19.63 C13.5401865,18.4587298 13.5401865,16.5612702 14.71,15.39 L14.71,15.39 Z M10,40 C8.8954305,40 8,40.8954305 8,42 C8,43.1045695 8.8954305,44 10,44 C11.1045695,44 12,43.1045695 12,42 C12,40.8954305 11.1045695,40 10,40 Z M25,40 C23.8954305,40 23,40.8954305 23,42 C23,43.1045695 23.8954305,44 25,44 C26.1045695,44 27,43.1045695 27,42 C27,40.8954305 26.1045695,40 25,40 Z M40,40 C38.8954305,40 38,40.8954305 38,42 C38,43.1045695 38.8954305,44 40,44 C41.1045695,44 42,43.1045695 42,42 C42,40.8954305 41.1045695,40 40,40 Z M14.45,5.46 C17.2467301,1.56886608 21.9573092,-0.468196433 26.7080066,0.159096364 C31.4587041,0.78638916 35.4791006,3.97630937 37.17,8.46 C38.0817998,8.15281392 39.0378485,7.99741378 40,8 C44.9705627,8.00000007 48.9999999,12.0294373 48.9999999,17 C48.9999999,21.9705627 44.9705627,26 40,26 L40,26 L35,26 L35,24 L40,24 C42.8816973,24.0124976 45.4765928,22.2577137 46.538123,19.5786301 C47.5996532,16.8995465 46.9108773,13.8436773 44.8026767,11.8790334 C42.6944761,9.91438945 39.5976958,9.44247767 37,10.69 L37,10.69 L35.91,11.21 L35.59,10.06 C34.4174091,5.87503627 30.8906755,2.77284198 26.5903213,2.14368005 C22.2899671,1.51451813 18.0223412,3.47636117 15.7,7.15 L15.7,7.15 L15.26,7.84 L14.5,7.55 C13.5402446,7.19123894 12.5246046,7.00503828 11.5,7 C6.80557963,6.87573593 2.89926407,10.5805796 2.775,15.275 C2.65073593,19.9694204 6.35557963,23.8757359 11.05,24 L11.05,24 L15,24 L15,26 L11,26 C5.20101013,25.8619288 0.611928813,21.0489899 0.75,15.25 C0.888071187,9.45101013 5.70101013,4.86192881 11.5,5 C12.5004907,5.00881646 13.4943236,5.16378702 14.45,5.46 Z M25,11.0283173 C23.0157683,11.0283173 21.1128405,11.8167132 19.71,13.22 L19.71,13.22 L16.12,16.81 C15.7322764,17.2000375 15.7322764,17.8299625 16.12,18.22 L16.12,18.22 L19.71,21.81 C21.1128405,23.2132868 23.0157683,24.0016827 25,24.0016827 C26.9842317,24.0016827 28.8871595,23.2132868 30.29,21.81 L30.29,21.81 L33.88,18.22 C34.2677236,17.8299625 34.2677236,17.2000375 33.88,16.81 L33.88,16.81 L30.29,13.22 C28.8871595,11.8167132 26.9842317,11.0283173 25,11.0283173 Z M25,13.51 C27.209139,13.51 29,15.300861 29,17.51 C29,19.719139 27.209139,21.51 25,21.51 C22.790861,21.51 21,19.719139 21,17.51 C21,15.300861 22.790861,13.51 25,13.51 Z M25,15.51 C23.8954305,15.51 23,16.4054305 23,17.51 C23,18.6145695 23.8954305,19.51 25,19.51 C26.1045695,19.51 27,18.6145695 27,17.51 C27,16.4054305 26.1045695,15.51 25,15.51 Z" id="Combined-Shape"></path>
        </g>
    </g>
</svg>