<?xml version="1.0" encoding="UTF-8"?>
<svg width="64px" height="64px" viewBox="0 0 64 64" version="1.1" xmlns="http://www.w3.org/2000/svg" xmlns:xlink="http://www.w3.org/1999/xlink">
    <title>Icon/64/Business Numbers</title>
    <g id="Icon/64/Business-Numbers" stroke="none" stroke-width="1" fill="none" fill-rule="evenodd">
        <g id="Business-Numbers" transform="translate(11.000000, 10.000000)" fill="#E6003C">
            <path d="M48,4 L48,39 C48,41.7614237 45.7614237,44 43,44 L43,44 L4,44 L4,42 L43,42 C44.6568542,42 46,40.6568542 46,39 L46,39 L46,4 L48,4 Z M38,0 C40.7614237,0 43,2.23857625 43,5 L43,5 L43,39 L5,39 C2.23857625,39 0,36.7614237 0,34 L0,34 L0,5 C0,2.23857625 2.23857625,0 5,0 L5,0 Z M38,2 L5,2 C3.34314575,2 2,3.34314575 2,5 L2,5 L2,34 C2,35.6568542 3.34314575,37 5,37 L5,37 L41,37 L41,5 C41,3.34314575 39.6568542,2 38,2 L38,2 Z M7.53,23.11 C12.474239,20.3091992 18.525761,20.3091992 23.47,23.11 L23.47,23.11 L23.6702799,23.2300409 C25.1137759,24.1415799 25.9974874,25.7320193 26,27.45 L26,27.45 L26,33 L5,33 L5,27.45 C5.00262677,25.6539292 5.96838214,23.997258 7.53,23.11 Z M22.52,24.85 C18.1786645,22.3856852 12.8613355,22.3856852 8.52,24.85 C7.58349866,25.3811332 7.00341996,26.3733731 7,27.45 L7,27.45 L7,31 L24.0000308,31 L24.0000308,27.45 C24.0048276,26.3816268 23.4411052,25.3913037 22.52,24.85 Z M29.66,9.18 C30.7693279,7.55844564 32.725498,6.73685416 34.66,7.08 L34.66,7.08 L36.34,7.37 C37.3101517,7.53725476 38.0143118,8.38564051 38,9.37 L38,9.37 L38,13.52 C38,14.6245695 37.1045695,15.52 36,15.52 L36,15.52 L33.35,15.52 C32.8950944,17.1556258 32.8950944,18.8843742 33.35,20.52 L33.35,20.52 L35.99,20.52 C37.0945695,20.52 37.99,21.4154305 37.99,22.52 L37.99,22.52 L37.99,26.65 C38.0035218,27.6375632 37.294134,28.4871294 36.32,28.65 L36.32,28.65 L34.63,28.93 C34.352621,28.9781277 34.0715191,29.0015529 33.79,29.0000724 C32.1331868,29.0087747 30.5823047,28.1863941 29.66,26.81 C26.0710961,21.4812728 26.0710961,14.5087272 29.66,9.18 Z M34.31,9 C34.133647,8.98511118 33.956353,8.98511118 33.78,9 C32.7955101,8.99891993 31.8758224,9.4906713 31.33,10.31 L31.33,10.31 L31.1324419,10.6094747 C28.1688202,15.2308417 28.2229158,21.1859191 31.3,25.76 C31.9706988,26.7253893 33.1434255,27.2101163 34.3,27 L34.3,27 L36,26.61 L36,22.45 L31.91,22.45 L31.67,21.79 C30.7749387,19.3116712 30.7749387,16.5983288 31.67,14.12 L31.67,14.12 L31.9,13.45 L35.99,13.45 L35.99,9.3 Z M15.5,7 C18.8137085,7 21.5,9.6862915 21.5,13 C21.5,16.3137085 18.8137085,19 15.5,19 C12.1862915,19 9.5,16.3137085 9.5,13 C9.5,9.6862915 12.1862915,7 15.5,7 Z M15.5,9 C13.290861,9 11.5,10.790861 11.5,13 C11.5,15.209139 13.290861,17 15.5,17 C17.709139,17 19.5,15.209139 19.5,13 C19.5,10.790861 17.709139,9 15.5,9 Z" id="Combined-Shape"></path>
        </g>
    </g>
</svg>