<?xml version="1.0" encoding="UTF-8"?>
<svg width="64px" height="64px" viewBox="0 0 64 64" version="1.1" xmlns="http://www.w3.org/2000/svg" xmlns:xlink="http://www.w3.org/1999/xlink">
    <title>Icon/64/Business Connectivity</title>
    <g id="Icon/64/Business-Connectivity" stroke="none" stroke-width="1" fill="none" fill-rule="evenodd">
        <g id="Business-Connectivity" transform="translate(8.000000, 11.000000)" fill="#E6003C">
            <path d="M34.76,18.9099832 C37.6587171,18.9077293 40.3163826,20.523296 41.6488072,23.0976329 C42.9812318,25.6719699 42.7656469,28.7746727 41.09,31.14 L41.09,31.14 L34.76,40.14 L28.42,31.14 C26.7433056,28.7732053 26.528567,25.6682602 27.8634807,23.0931822 C29.1983944,20.5181042 31.8594854,18.9039815 34.76,18.9099832 Z M4.36,10.36 C8.56909678,6.15234931 15.298555,5.86695244 19.8487908,9.70311911 C24.3990265,13.5392858 25.2554633,20.2201222 21.82,25.08 L21.82,25.08 L12.46,38.32 L3.1,25.08 C-0.129306025,20.5235418 0.403299929,14.3013517 4.36,10.36 Z M38.83,22.6 C36.578983,20.3599837 32.941017,20.3599837 30.69,22.6 C28.6975457,24.5801978 28.4309631,27.711486 30.06,30 L30.06,30 L34.76,36.65 L39.46,30 C41.0847821,27.7103246 40.818457,24.5820618 38.83,22.6 Z M18.7745981,11.3904326 C15.1809311,8.17957969 9.74906888,8.17957969 6.15540188,11.3904326 C2.56173487,14.6012854 1.95248307,19.9988719 4.74,23.93 L4.74,23.93 L12.46,34.85 L20.19,23.93 C22.9775169,19.9988719 22.3682651,14.6012854 18.7745981,11.3904326 Z M34.76,23 C36.6929966,23 38.26,24.5670034 38.26,26.5 C38.26,28.4329966 36.6929966,30 34.76,30 C32.8270034,30 31.26,28.4329966 31.26,26.5 C31.26,24.5670034 32.8270034,23 34.76,23 Z M34.76,25 C33.9315729,25 33.26,25.6715729 33.26,26.5 C33.26,27.3284271 33.9315729,28 34.76,28 C35.5884271,28 36.26,27.3284271 36.26,26.5 C36.26,25.6715729 35.5884271,25 34.76,25 Z M12.46,12.9999907 C13.8939009,12.9973446 15.2699824,13.5650991 16.2848427,14.5780835 C17.299703,15.5910679 17.8700093,16.9660967 17.8700093,18.4 C17.8740463,20.5890462 16.5585107,22.5647955 14.5372559,23.4053125 C12.516001,24.2458294 10.1874253,23.7854443 8.638102,22.2389849 C7.08877869,20.6925254 6.62408625,18.3648054 7.46086215,16.341999 C8.29763804,14.3191925 10.27095,12.9999907 12.46,12.9999907 Z M12.46,14.99 C10.576709,14.99 9.05,16.516709 9.05,18.4 C9.05,20.283291 10.576709,21.81 12.46,21.81 C14.343291,21.81 15.87,20.283291 15.87,18.4 C15.87,16.516709 14.343291,14.99 12.46,14.99 Z M29.67,13.58 C32.5054906,10.7617133 37.0845094,10.7617133 39.92,13.58 L39.92,13.58 L38.51,15 C36.4568486,12.9516776 33.1331514,12.9516776 31.08,15 L31.08,15 Z M25.75,9.63 C30.73744,4.64031079 38.8205306,4.62242784 43.83,9.59 L43.83,9.59 L42.42,11 C38.2050405,6.79798455 31.3849595,6.79798455 27.17,11 L27.17,11 Z M21.59,5.46 C28.8886912,-1.8189741 40.7013088,-1.8189741 48,5.46 L48,5.46 L46.59,6.88 C40.0736651,0.370960871 29.5163349,0.370960871 23,6.88 L23,6.88 Z" id="Combined-Shape"></path>
        </g>
    </g>
</svg>