<?xml version="1.0" encoding="UTF-8"?>
<svg width="64px" height="64px" viewBox="0 0 64 64" version="1.1" xmlns="http://www.w3.org/2000/svg" xmlns:xlink="http://www.w3.org/1999/xlink">
    <title>Icon/64/Cloud PBX</title>
    <g id="Icon/64/Cloud-PBX" stroke="none" stroke-width="1" fill="none" fill-rule="evenodd">
        <g id="Cloud-PBX" transform="translate(8.000000, 10.000000)" fill="#E6003C">
            <path d="M12.59,12.78 C13.7612702,11.6101865 15.6587298,11.6101865 16.83,12.78 L16.83,12.78 L21.25,17.2 C22.4225805,18.3685093 22.4270557,20.2659727 21.26,21.44 L21.26,21.44 L17,25.7 C19.0108652,29.9348556 22.3889936,33.3693448 26.59,35.45 L26.59,35.45 L30.92,31.13 C32.0912702,29.9601865 33.9887298,29.9601865 35.16,31.13 L35.16,31.13 L39.79,35.75 C40.3548636,36.3129056 40.6723657,37.0775456 40.6723657,37.875 C40.6723657,38.6724544 40.3548636,39.4370944 39.79,40 L39.79,40 L37.24,42.53 C36.2959715,43.467699 35.0205833,43.9958175 33.69,44 L33.69,44 L33.32,44 C20.0815853,42.992741 9.55794772,32.4775971 8.54,19.24 C8.43341739,17.7861518 8.96662231,16.3581852 10,15.33 L10,15.33 Z M14.71,13.8999833 C14.444197,13.8984632 14.1887188,14.0028135 14,14.19 L14,14.19 L11.45,16.74 C10.8246463,17.3594708 10.5029032,18.2223273 10.57,19.1 C11.5234513,31.3289073 21.2406775,41.0418901 33.47,41.99 C34.3442822,42.0541018 35.2028623,41.7325909 35.82,41.11 L35.82,41.11 L38.37,38.56 C38.7577236,38.1699625 38.7577236,37.5400375 38.37,37.15 L38.37,37.15 L33.75,32.52 C33.5622334,32.3306873 33.3066375,32.2242017 33.04,32.2242017 C32.7733625,32.2242017 32.5177666,32.3306873 32.33,32.52 L32.33,32.52 L27.02,37.83 L26.38,37.55 C21.2404284,35.2137817 17.1449856,31.0613589 14.88,25.89 L14.88,25.89 L14.6,25.26 L19.84,20 C20.0199761,19.8186967 20.12374,19.5753881 20.13,19.32 C20.1315368,19.054197 20.0271865,18.7987188 19.84,18.61 L19.84,18.61 L15.42,14.19 C15.2312812,14.0028135 14.975803,13.8984632 14.71,13.8999833 Z M25,0.0699579566 C30.4243909,0.0747900027 35.2756372,3.44714364 37.17,8.53 C38.0815798,8.22192774 39.0377765,8.06650355 40,8.07 C44.9705627,8.07 49,12.0994373 49,17.07 C49,22.0405627 44.9705627,26.07 40,26.07 L40,26.07 L22,26.07 L22,24.07 L40,24.07 C43.8659932,24.0699999 46.9999999,20.9359932 46.9999999,17.07 C46.9999999,13.2040068 43.8659932,10.0700001 40,10.07 C38.9606809,10.0701135 37.9349333,10.3060354 37,10.76 L37,10.76 L35.85,11.27 L35.53,10.12 C34.3574091,5.93503627 30.8306755,2.83284198 26.5303213,2.20368005 C22.2299671,1.57451813 17.9623412,3.53636117 15.64,7.21 L15.64,7.21 L15.2,7.9 L14.44,7.61 C13.4802446,7.25123894 12.4646046,7.06503828 11.44,7.06 C7.53962504,7.06 4.13976863,9.71452768 3.19378875,13.4984472 C2.24780887,17.2823667 3.99849269,21.2245294 7.44,23.06 L7.44,23.06 L6.5,24.82 C2.25539162,22.5400539 0.107205558,17.6638455 1.28969219,12.9930233 C2.47217882,8.32220115 6.681842,5.05557488 11.5,5.07 C12.4990136,5.06908984 13.4928147,5.21394899 14.45,5.5 C16.8761837,2.08412338 20.8101949,0.0593194923 25,0.0699579566 Z" id="Combined-Shape"></path>
        </g>
    </g>
</svg>