<?xml version="1.0" encoding="UTF-8"?>
<svg width="64px" height="64px" viewBox="0 0 64 64" version="1.1" xmlns="http://www.w3.org/2000/svg" xmlns:xlink="http://www.w3.org/1999/xlink">
    <title>Icon/64/Connectivity</title>
    <g id="Icon/64/Connectivity" stroke="none" stroke-width="1" fill="none" fill-rule="evenodd">
        <g id="Connectivity" transform="translate(9.000000, 9.000000)" fill="#E6003C">
            <path d="M42.53,13.55 C41.0926377,12.864991 39.4419384,12.7794005 37.9414378,13.3120782 C36.4409371,13.8447559 35.2136991,14.9520142 34.53,16.39 C33.9998558,17.5145423 33.8321275,18.7759984 34.05,20 L28.23,22.07 C27.3472729,20.4808362 25.7916618,19.3775659 24,19.07 L24,12.91 C27.0755618,12.3901352 29.2398292,9.60042566 28.9789831,6.49216266 C28.718137,3.38389965 26.1191889,0.993920217 23,0.993920217 C19.8808111,0.993920217 17.281863,3.38389965 17.0210169,6.49216266 C16.7601708,9.60042566 18.9244382,12.3901352 22,12.91 L22,19.09 C20.2046388,19.3947496 18.6448402,20.4983807 17.76,22.09 L11.9,20 C12.2814313,17.7944977 11.4035438,15.5600395 9.62283682,14.2040112 C7.84212983,12.8479828 5.45467962,12.5958497 3.43,13.55 C1.23991492,14.5932635 -0.106467186,16.8526802 0.0182771313,19.2753462 C0.143021448,21.6980121 1.71434498,23.8071946 4,24.62 C5.49988772,25.1555541 7.15116323,25.0728105 8.59,24.39 C9.7110943,23.8514659 10.6371277,22.9778494 11.24,21.89 L17.09,24 C17.0361021,24.3307493 17.0060247,24.6649421 17,25 C16.9974258,26.5641295 17.611889,28.0661508 18.71,29.18 L15.07,34.18 C13.9559628,33.628122 12.698001,33.4359334 11.47,33.63 C9.07409336,34.0178319 7.14782259,35.8109094 6.58960472,38.1729372 C6.03138686,40.5349649 6.95118374,43.0006534 8.92,44.42 C9.93614345,45.1605993 11.1626251,45.5565777 12.42,45.55 C14.1885575,45.5541039 15.8688406,44.7777454 17.0120072,43.4283076 C18.1551739,42.0788697 18.6447651,40.2938252 18.35,38.55 C18.1507173,37.3224499 17.5699131,36.1888321 16.69,35.31 L20.32,30.31 C21.1462737,30.7485038 22.0646991,30.9849641 23,31 C23.9191626,30.9990434 24.8258176,30.7869203 25.65,30.38 L29.27,35.38 C27.5807786,37.1033358 27.0883808,39.670972 28.0202381,41.8969543 C28.9520954,44.1229365 31.1268445,45.5740318 33.54,45.5800019 C34.7826012,45.5809879 35.993683,45.1889614 37,44.46 C39.5010753,42.6254519 40.1915892,39.1869912 38.5926918,36.5290838 C36.9937944,33.8711764 33.6326032,32.8700697 30.84,34.22 L27.23,29.22 C28.3543248,28.1023999 28.9906607,26.5852599 29,25 C28.99512,24.664432 28.9616657,24.3298894 28.9,24 L34.73,21.93 C35.3328723,23.0178494 36.2589057,23.8914659 37.38,24.43 C38.8188368,25.1128105 40.4701123,25.1955541 41.97,24.66 C45.0891608,23.548526 46.7182329,20.1203139 45.61,17 C45.0925708,15.4805464 43.9812792,14.2357556 42.53,13.55 Z M9.77,20.31 C9.41437182,21.3083648 8.67707207,22.1247894 7.72,22.58 C6.76032722,23.0341165 5.6594863,23.0880793 4.66,22.73 C3.65695937,22.3822392 2.83785891,21.642523 2.39,20.68 C1.93482939,19.7212899 1.87930842,18.6209922 2.23565981,17.6213328 C2.59201119,16.6216734 3.33102128,15.8046043 4.29,15.35 C5.76037772,14.644337 7.51193546,14.9020528 8.71674298,16.0013297 C9.92155051,17.1006066 10.3382995,18.8212729 9.77,20.35 L9.77,20.31 Z M19,7 C19,4.790861 20.790861,3 23,3 C25.209139,3 27,4.790861 27,7 C27,9.209139 25.209139,11 23,11 C20.790861,11 19,9.209139 19,7 Z M15.67,41.94 C14.8339985,43.0993268 13.4430078,43.7245875 12.0210006,43.5802524 C10.5989933,43.4359173 9.36200631,42.5439144 8.77600056,41.2402524 C8.1899948,39.9365905 8.34399852,38.4193268 9.18,37.26 C9.80156294,36.3979057 10.7406595,35.8186163 11.79,35.65 C12.0010174,35.6102409 12.2152697,35.5901547 12.43,35.59 C13.2704744,35.591203 14.0892159,35.857119 14.77,36.35 C15.6314316,36.9713241 16.2103838,37.9097442 16.3792135,38.9583645 C16.5480433,40.0069849 16.2928871,41.0796979 15.67,41.94 Z M19,25 C19,22.790861 20.790861,21 23,21 C25.209139,21 27,22.790861 27,25 C27,27.209139 25.209139,29 23,29 C20.790861,29 19,27.209139 19,25 Z M33.53,35.59 C33.7447303,35.5901547 33.9589826,35.6102409 34.17,35.65 C35.9575426,35.9381474 37.328616,37.3911085 37.5127005,39.1923443 C37.6967851,40.9935801 36.647969,42.6938516 34.9556688,43.3376355 C33.2633686,43.9814194 31.3496542,43.4081521 30.29,41.94 C29.6671129,41.0796979 29.4119567,40.0069849 29.5807865,38.9583645 C29.7496162,37.9097442 30.3285684,36.9713241 31.19,36.35 C31.8707841,35.857119 32.6895256,35.591203 33.53,35.59 Z M43.53,20.68 C43.0821411,21.642523 42.2630406,22.3822392 41.26,22.73 C40.2605137,23.0880793 39.1596728,23.0341165 38.2,22.58 C37.2429279,22.1247894 36.5056282,21.3083648 36.15,20.31 C35.7950486,19.3091972 35.8526105,18.2083274 36.31,17.25 C37.2565987,15.2586748 39.6360909,14.4088561 41.63,15.35 C42.5889787,15.8046043 43.3279888,16.6216734 43.6843402,17.6213328 C44.0406916,18.6209922 43.9851706,19.7212899 43.53,20.68 L43.53,20.68 Z" id="Shape"></path>
        </g>
    </g>
</svg>