<?xml version="1.0" encoding="UTF-8"?>
<svg width="64px" height="64px" viewBox="0 0 64 64" version="1.1" xmlns="http://www.w3.org/2000/svg" xmlns:xlink="http://www.w3.org/1999/xlink">
    <title>Icon/64/Emergency Data</title>
    <g id="Icon/64/Emergency-Data" stroke="none" stroke-width="1" fill="none" fill-rule="evenodd">
        <path d="M13.9,17.58 C15.4840875,16.0688864 17.9759125,16.0688864 19.56,17.58 L19.56,17.58 L24.06,22.09 C25.6175332,23.6513099 25.6175332,26.1786901 24.06,27.74 L24.06,27.74 L19.23,32.57 C21.7069465,37.8068371 25.8983207,42.0405484 31.11,44.57 L31.11,44.57 L36.02,39.66 C37.6007256,38.1501507 40.0892744,38.1501507 41.67,39.66 L41.67,39.66 L46.43,44.41 C47.1811082,45.160273 47.6031466,46.178363 47.6031466,47.24 C47.6031466,48.301637 47.1811082,49.319727 46.43,50.07 L46.43,50.07 L43.49,53 C42.5423197,53.9347362 41.2610373,54.4530077 39.93,54.4402391 L39.93,54.4402391 L39.63,54.4402391 C23.4249507,53.4569849 10.5068661,40.5260209 9.54,24.32 C9.44820761,22.8831371 9.980273,21.4764437 11,20.46 L11,20.46 Z M16.725,18.3534267 C16.1941815,18.3534267 15.6851365,18.5644459 15.31,18.94 L15.31,18.94 L12.38,21.87 C11.7628936,22.4824554 11.4418431,23.3325095 11.5,24.2 C12.4175414,39.401972 24.5383538,51.5270765 39.74,52.45 C40.6063104,52.5003126 41.4532444,52.1804405 42.07,51.57 L42.07,51.57 L45,48.64 C45.3755541,48.2648635 45.5865733,47.7558185 45.5865733,47.225 C45.5865733,46.6941815 45.3755541,46.1851365 45,45.81 L45,45.81 L40.26,41.09 C39.4659394,40.3394963 38.2240606,40.3394963 37.43,41.09 L37.43,41.09 L31.53,46.99 L30.9,46.7 C24.7353018,43.8953075 19.8267059,38.908345 17.12,32.7 L17.12,32.7 L16.84,32.07 L22.65,26.27 C23.0255541,25.8948635 23.2365733,25.3858185 23.2365733,24.855 C23.2365733,24.3241815 23.0255541,23.8151365 22.65,23.44 L22.65,23.44 L18.14,18.94 C17.7648635,18.5644459 17.2558185,18.3534267 16.725,18.3534267 Z M31.4720474,14.3758762 C35.0735088,9.40192872 41.6642979,7.62652229 47.276885,10.1184178 C52.8894721,12.6103133 55.9928357,18.6897626 54.7188098,24.6970528 C53.4447839,30.704343 48.140902,35.000784 42,35 L42,35 L30.46,35 L32.36,30.72 C28.2408719,26.165501 27.8705861,19.3498236 31.4720474,14.3758762 Z M41.9999994,11 C35.9248678,11 30.9999994,15.9248678 30.9999994,22 C30.9989998,24.9324669 32.1689486,27.7439439 34.25,29.81 L34.25,29.81 L34.74,30.29 L33.54,33 L41.9999994,33 C48.0751322,33 52.9999994,28.0751322 52.9999994,22 C52.9999994,15.9248678 48.0751322,11 41.9999994,11 Z M45.45,14.5 L45.45,18.5 L49.45,18.5 L49.45,25.5 L45.45,25.5 L45.45,29.5 L38.45,29.5 L38.45,25.5 L34.45,25.5 L34.45,18.5 L38.45,18.5 L38.45,14.5 L45.45,14.5 Z M43.45,16.5 L40.45,16.5 L40.45,20.5 L36.45,20.5 L36.45,23.5 L40.45,23.5 L40.45,27.5 L43.45,27.5 L43.45,23.5 L47.45,23.5 L47.45,20.5 L43.45,20.5 L43.45,16.5 Z" id="Combined-Shape" fill="#E6003C"></path>
    </g>
</svg>