<?xml version="1.0" encoding="UTF-8"?>
<svg width="64px" height="64px" viewBox="0 0 64 64" version="1.1" xmlns="http://www.w3.org/2000/svg" xmlns:xlink="http://www.w3.org/1999/xlink">
    <title>Icon/64/Recording Service-64</title>
    <g id="Icon/64/Recording-Service-64" stroke="none" stroke-width="1" fill="none" fill-rule="evenodd">
        <g id="Recording-Service" transform="translate(9.000000, 12.000000)" fill="#E6003C">
            <path d="M2.56,27.63 C12.1493791,22.2599388 23.8406209,22.2599388 33.43,27.63 C35.0163908,28.5121765 35.9999966,30.184822 35.9999966,32 L35.9999966,32 L35.9999966,41 L-3.3566516e-06,41 L-3.3566516e-06,32 C-0.00209591177,30.1869253 0.977467596,28.5147798 2.56,27.63 Z M32.46,29.38 C23.4786335,24.3404657 12.5213665,24.3404657 3.54,29.38 C2.58956285,29.9094786 2,30.9120302 2,32 L2,32 L2,39 L34,39 L34,32 C34,30.9120302 33.4104372,29.9094786 32.46,29.38 Z M42.84,0.94 C45.8404816,7.91294074 45.7788129,15.8246787 42.67,22.75 L42.67,22.75 L40.85,21.93 C43.7330382,15.5161859 43.7874708,8.1859218 41,1.73 L41,1.73 Z M18,2.51999448 C21.6936476,2.51595438 25.0258448,4.73784063 26.4421466,8.1491656 C27.8584485,11.5604906 27.0797947,15.4891054 24.4694214,18.102341 C21.8590481,20.7155766 17.9312889,21.4985352 14.5184139,20.0859726 C11.1055389,18.67341 8.88,15.3436498 8.88,11.65 C8.88,6.6115429 12.9615459,2.52551857 18,2.51999448 Z M37.25,3.6 C39.4442004,8.88990147 39.3827926,14.8464593 37.08,20.09 L37.08,20.09 L35.25,19.28 C37.3409134,14.5411898 37.3987387,9.15258917 35.41,4.37 L35.41,4.37 Z M18,4.52 C14.0635162,4.52552102 10.8763237,7.72017137 10.8799999,11.6566573 C10.8836825,15.5931433 14.0768414,18.78183 18.0133287,18.779993 C21.9498159,18.7781545 25.14,15.5864877 25.14,11.65 C25.1344826,7.71059269 21.9394112,4.52 18,4.52 Z M31.84,6.21 C33.2607318,9.84753426 33.1997037,13.8969315 31.67,17.49 L31.67,17.49 L29.85,16.71 C31.1685625,13.5967448 31.2223672,10.0922664 30,6.94 L30,6.94 Z" id="Combined-Shape"></path>
        </g>
    </g>
</svg>