<?xml version="1.0" encoding="UTF-8"?>
<svg width="64px" height="64px" viewBox="0 0 64 64" version="1.1" xmlns="http://www.w3.org/2000/svg" xmlns:xlink="http://www.w3.org/1999/xlink">
    <title>Icon/64/Service Performance Monitoring</title>
    <g id="Icon/64/Service-Performance-Monitoring" stroke="none" stroke-width="1" fill="none" fill-rule="evenodd">
        <g id="Service-Performance-Monitoring" transform="translate(7.000000, 10.000000)" fill="#E6003C">
            <path d="M41,41 L41,43 L8,43 L8,41 L41,41 Z M24,-4.5672242e-07 C32.9076534,-0.00173330099 41.0835452,4.93017216 45.2365748,12.810441 C49.3896044,20.6907099 48.836536,30.2229191 43.8,37.57 L43.8,37.57 L43.5,37.9999995 L4.5,37.9999995 L4.2,37.57 C-0.83653596,30.2229191 -1.38960444,20.6907099 2.76342519,12.810441 C6.91645481,4.93017216 15.0923466,-0.00173330099 24,-4.5672242e-07 Z M38.4382612,7.40210448 C30.1595275,0.201165283 17.8404725,0.201165283 9.56173883,7.40210448 C1.2830052,14.6030437 -0.424182407,26.8032333 5.56,36 L5.56,36 L42.44,36 C48.4241824,26.8032333 46.7169948,14.6030437 38.4382612,7.40210448 Z M36.29,10.29 L37.71,11.71 L28.17,21.24 C28.7115703,22.0585913 29.0002312,23.0184757 29,24 C28.9996428,26.2914135 27.4417425,28.2893238 25.2195325,28.8482144 C22.9973224,29.407105 20.6796101,28.3839197 19.5952725,26.3653092 C18.510935,24.3466988 18.9375245,21.8493561 20.6304528,20.3051509 C22.3233811,18.7609456 24.8493183,18.5651397 26.76,19.83 L26.76,19.83 L36.29,10.29 Z M24.8171556,21.0184578 C23.7542222,20.7470033 22.6278823,21.0773873 21.88,21.88 C21.0773873,22.6278823 20.7470033,23.7542222 21.0184578,24.8171556 C21.2899124,25.8800891 22.1199109,26.7100876 23.1828444,26.9815422 C24.2457778,27.2529967 25.3721177,26.9226127 26.12,26.12 L26.2649243,25.9754449 C26.9615598,25.2315729 27.2360308,24.1793445 26.9815422,23.1828444 C26.7100876,22.1199109 25.8800891,21.2899124 24.8171556,21.0184578 Z M42,23 L42,25 L35,25 L35,23 L42,23 Z M13,23 L13,25 L6,25 L6,23 L13,23 Z M11.981378,10.5680195 L16.9311255,15.517767 L15.5169119,16.9319805 L10.5671645,11.982233 L11.981378,10.5680195 Z M25,6 L25,13 L23,13 L23,6 L25,6 Z" id="Combined-Shape"></path>
        </g>
    </g>
</svg>