<?xml version="1.0" encoding="UTF-8"?>
<svg width="64px" height="64px" viewBox="0 0 64 64" version="1.1" xmlns="http://www.w3.org/2000/svg" xmlns:xlink="http://www.w3.org/1999/xlink">
    <title>Icon/64/Sunrise Office Kick-Start</title>
    <g id="Icon/64/Sunrise-Office-Kick-Start" stroke="none" stroke-width="1" fill="none" fill-rule="evenodd">
        <g id="Sunrise-Office-Kick-Start" transform="translate(8.000000, 8.000000)" fill="#E6003C">
            <path d="M33,41 C35.7614237,41 38,43.2385763 38,46 L38,46 L38,48 L10,48 L10,46 C10,43.2385763 12.2385763,41 15,41 L15,41 Z M33,43 L15,43 C13.3431458,43 12,44.3431458 12,46 L12,46 L36,46 C36,44.3431458 34.6568542,43 33,43 L33,43 Z M7,4 L7,6 L5,6 C3.34314575,6 2,7.34314575 2,9 L2,9 L2,33 C2,34.6568542 3.34314575,36 5,36 L5,36 L43,36 C44.6568542,36 46,34.6568542 46,33 L46,33 L46,9 C46,7.34314575 44.6568542,6 43,6 L43,6 L41,6 L41,4 L43,4 C44.3260824,4 45.597852,4.5267842 46.5355339,5.46446609 C47.4732158,6.40214799 48,7.67391755 48,9 L48,9 L48,33 C48,35.7614237 45.7614237,38 43,38 L43,38 L5,38 C2.23857625,38 -3.55271368e-14,35.7614237 -3.55271368e-14,33 L-3.55271368e-14,33 L-3.55271368e-14,9 C-3.55271368e-14,6.23857625 2.23857625,4 5,4 L5,4 L7,4 Z M24,17 C28.418278,17 32,20.581722 32,25 C32,29.418278 28.418278,33 24,33 C19.581722,33 16,29.418278 16,25 C16,20.581722 19.581722,17 24,17 Z M24,19 C20.6862915,19 18,21.6862915 18,25 C18,28.3137085 20.6862915,31 24,31 C27.3137085,31 30,28.3137085 30,25 C30,21.6862915 27.3137085,19 24,19 Z M26.29,22.29 L27.71,23.71 L23,28.41 L20.29,25.71 L21.71,24.29 L23,25.59 L26.29,22.29 Z M18.67,13.59 C21.5009521,10.7607305 26.0890479,10.7607305 28.92,13.59 L28.92,13.59 L27.51,15 C25.4568486,12.9516776 22.1331514,12.9516776 20.08,15 L20.08,15 Z M14.75,9.67 C19.7484618,4.69138651 27.8315382,4.69138651 32.83,9.67 L32.83,9.67 L31.42,11.09 C27.2073162,6.88248196 20.3826838,6.88248196 16.17,11.09 L16.17,11.09 Z M10.59,5.5 C17.8886912,-1.7789741 29.7013088,-1.7789741 37,5.5 L37,5.5 L35.59,6.92 C29.0691153,0.421962982 18.5208847,0.421962982 12,6.92 L12,6.92 Z" id="Combined-Shape"></path>
        </g>
    </g>
</svg>