<?xml version="1.0" encoding="UTF-8"?>
<svg width="64px" height="64px" viewBox="0 0 64 64" version="1.1" xmlns="http://www.w3.org/2000/svg" xmlns:xlink="http://www.w3.org/1999/xlink">
    <title>Icon/64/Work Smart Marketplace</title>
    <g id="Icon/64/Work-Smart-Marketplace" stroke="none" stroke-width="1" fill="none" fill-rule="evenodd">
        <g id="Work-Smart-Marketplace" transform="translate(7.000000, 10.000000)" fill="#E6003C">
            <path d="M33,36 C35.209139,36 37,37.790861 37,40 C37,42.209139 35.209139,44 33,44 C30.790861,44 29,42.209139 29,40 C29,37.790861 30.790861,36 33,36 Z M20,36 C22.209139,36 24,37.790861 24,40 C24,42.209139 22.209139,44 20,44 C17.790861,44 16,42.209139 16,40 C16,37.790861 17.790861,36 20,36 Z M33,38 C31.8954305,38 31,38.8954305 31,40 C31,41.1045695 31.8954305,42 33,42 C34.1045695,42 35,41.1045695 35,40 C35,38.8954305 34.1045695,38 33,38 Z M20,38 C18.8954305,38 18,38.8954305 18,40 C18,41.1045695 18.8954305,42 20,42 C21.1045695,42 22,41.1045695 22,40 C22,38.8954305 21.1045695,38 20,38 Z M8.72,11.9999999 C11.0963431,11.999515 13.1447314,13.6716687 13.62,15.9999999 L13.62,15.9999999 L40.31,15.9999999 L37.77,25.32 C37.1744709,27.4957723 35.1957989,29.0033319 32.94,28.9999999 L32.94,28.9999999 L16.22,28.9999999 L16.34,29.59 C16.6210128,30.9909741 17.8511207,31.9993278 19.28,31.9999999 L19.28,31.9999999 L37,31.9999999 L37,33.9999999 L19.28,33.9999999 C16.9036569,34.000485 14.8552686,32.3283313 14.38,29.9999999 L14.38,29.9999999 L11.66,16.41 C11.3789872,15.0090259 10.1488793,14.0006722 8.72,13.9999999 L8.72,13.9999999 L7,13.9999999 L7,11.9999999 Z M37.69,18 L14,18 L15.82,27 L32.94,27 C34.2947892,27.0026571 35.4832408,26.096975 35.84,24.79 L35.84,24.79 L37.69,18 Z M14.45,5.46 C17.2467301,1.56886608 21.9573092,-0.468196433 26.7080066,0.159096364 C31.4587041,0.78638916 35.4791006,3.97630937 37.17,8.46 C38.0817998,8.15281392 39.0378485,7.99741378 40,8 C44.9705627,8 49,12.0294373 49,17 C49,21.9705627 44.9705627,26 40,26 L40,26 L40,24 C42.8816973,24.0124976 45.4765928,22.2577137 46.538123,19.5786301 C47.5996532,16.8995465 46.9108773,13.8436773 44.8026767,11.8790334 C42.6944761,9.91438945 39.5976958,9.44247767 37,10.69 L37,10.69 L35.96,11.21 L35.64,10.06 C34.4674091,5.87503627 30.9406755,2.77284198 26.6403213,2.14368005 C22.3399671,1.51451813 18.0723412,3.47636117 15.75,7.15 L15.75,7.15 L15.31,7.84 L14.55,7.55 C13.5902446,7.19123894 12.5746046,7.00503828 11.55,7 C6.85557963,6.87573593 2.94926407,10.5805796 2.825,15.275 C2.70073593,19.9694204 6.40557963,23.8757359 11.1,24 L11.1,24 L11,26 C5.20101013,25.8619288 0.611928813,21.0489899 0.75,15.25 C0.888071187,9.45101013 5.70101013,4.86192881 11.5,5 C12.5004907,5.00881646 13.4943236,5.16378702 14.45,5.46 Z" id="Combined-Shape"></path>
        </g>
    </g>
</svg>