<?xml version="1.0" encoding="UTF-8"?>
<svg width="64px" height="64px" viewBox="0 0 64 64" version="1.1" xmlns="http://www.w3.org/2000/svg" xmlns:xlink="http://www.w3.org/1999/xlink">
    <title>Icon/64/Work Smart</title>
    <g id="Icon/64/Work-Smart" stroke="none" stroke-width="1" fill="none" fill-rule="evenodd">
        <g id="Work_Smart" transform="translate(8.000000, 10.000000)" fill="#E6003C">
            <path d="M33,37 C35.7614237,37 38,39.2385763 38,42 L38,42 L38,44 L10,44 L10,42 C10,39.2385763 12.2385763,37 15,37 L15,37 Z M33,39 L15,39 C13.3431458,39 12,40.3431458 12,42 L12,42 L36,42 C36,40.3431458 34.6568542,39 33,39 L33,39 Z M43,0 C44.3260824,0 45.597852,0.526784202 46.5355339,1.46446609 C47.4732158,2.40214799 48,3.67391755 48,5 L48,5 L48,29 C48,31.7614237 45.7614237,34 43,34 L43,34 L5,34 C2.23857625,34 0,31.7614237 0,29 L0,29 L0,5 C0,2.23857625 2.23857625,0 5,0 L5,0 Z M43,2 L5,2 C3.34314575,2 2,3.34314575 2,5 L2,5 L2,29 C2,30.6568542 3.34314575,32 5,32 L5,32 L43,32 C44.6568542,32 46,30.6568542 46,29 L46,29 L46,5 C46,3.34314575 44.6568542,2 43,2 L43,2 Z M14.07,22 C20.2380781,18.5406806 27.7619219,18.5406806 33.93,22 L33.93,22 C35.5101493,22.8786871 36.4928345,24.5419869 36.5,26.35 L36.5,26.35 L36.5,30 L11.5,30 L11.5,26.37 C11.5,24.554822 12.4836092,22.8821765 14.07,22 Z M32.92,23.73 C27.354291,20.6091823 20.565709,20.6091823 15,23.73 C14.0649793,24.2697962 13.4921266,25.2703789 13.4999199,26.35 L13.4999199,26.35 L13.4999199,28 L34.5,28 L34.46,26.35 C34.4597232,25.2620302 33.8704372,24.2594786 32.92,23.73 Z M24,4 C27.5898509,4 30.5,6.91014913 30.5,10.5 C30.5,14.0898509 27.5898509,17 24,17 C20.4124325,16.9944934 17.5055066,14.0875675 17.5,10.5 C17.5,6.91014913 20.4101491,4 24,4 Z M24,6 C21.5170001,6.00549947 19.5054995,8.01700015 19.5,10.5 C19.5,12.9852814 21.5147186,15 24,15 C26.4852814,15 28.5,12.9852814 28.5,10.5 C28.5,8.01471863 26.4852814,6 24,6 Z" id="Combined-Shape"></path>
        </g>
    </g>
</svg>